<svg width="839" height="173" viewBox="0 0 839 173" fill="none" xmlns="http://www.w3.org/2000/svg">
<g clip-path="url(#clip0_29_307)">
<path d="M829.027 54.0749H803.28V31.4986C803.28 27.2309 800.567 23.1379 795.739 20.1202C790.91 17.1024 784.361 15.4071 777.533 15.4071H749.944C749.069 11.3446 745.969 7.59692 741.172 4.80127C736.376 2.00562 730.178 0.334512 723.632 0.0720489V0.0144098H605.521V0.0960603C598.469 0.500125 591.913 2.53542 587.138 5.80308C582.362 9.07073 579.711 13.3352 579.704 17.7608V54.0749H259.503V17.7608C259.502 13.332 256.852 9.0633 252.074 5.79248C247.297 2.52166 240.736 0.484815 233.679 0.0816505V0H115.575V0.0576391C109.03 0.320102 102.832 1.99121 98.0347 4.78686C93.2378 7.58251 90.1382 11.3302 89.2627 15.3927H61.6823C54.8536 15.3927 48.3047 17.088 43.4761 20.1058C38.6476 23.1235 35.9349 27.2165 35.9349 31.4842V54.0605H9.77632C-3.25877 54.0605 -3.25877 106.557 9.77632 106.557H35.9349V140.59C35.9349 144.858 38.6476 148.951 43.4761 151.968C48.3047 154.986 54.8536 156.681 61.6823 156.681H89.2627C90.1373 160.744 93.2366 164.493 98.0336 167.289C102.831 170.085 109.029 171.756 115.575 172.019V172.076H233.679V171.995C240.736 171.591 247.297 169.554 252.075 166.283C256.852 163.011 259.502 158.742 259.503 154.313V106.572H579.704V154.323C579.705 158.752 582.355 163.021 587.132 166.292C591.91 169.563 598.471 171.601 605.528 172.004V172.086H723.632V172.028C730.178 171.766 736.377 170.094 741.174 167.298C745.971 164.502 749.07 160.754 749.944 156.691H777.521C784.35 156.691 790.899 154.996 795.727 151.978C800.556 148.96 803.268 144.867 803.268 140.599V106.572H829.016C842.059 106.572 842.059 54.0749 829.027 54.0749Z" fill="#C6C6C6"/>
<path d="M803.269 82.6914V106.572H829.016C829.412 106.57 829.803 106.52 830.169 106.425C830.295 106.384 830.417 106.338 830.534 106.288C830.785 106.21 831.023 106.116 831.245 106.007C831.383 105.933 831.518 105.832 831.652 105.746C831.866 105.617 832.066 105.479 832.252 105.335C832.39 105.222 832.521 105.095 832.655 104.955C832.836 104.787 833.016 104.619 833.186 104.425C833.32 104.273 833.443 104.105 833.57 103.944C833.731 103.738 833.889 103.529 834.042 103.301C834.169 103.116 834.288 102.914 834.427 102.717C834.573 102.477 834.715 102.237 834.853 101.97C834.969 101.754 835.08 101.523 835.191 101.293C835.318 101.021 835.449 100.748 835.576 100.459C835.683 100.219 835.787 99.955 835.887 99.6932C835.987 99.4314 836.114 99.0928 836.221 98.7806C836.329 98.4683 836.414 98.2258 836.502 97.9376C836.59 97.6494 836.702 97.2867 836.798 96.9529C836.894 96.619 836.963 96.3548 837.044 96.0474C837.132 95.7016 837.217 95.3485 837.297 94.993C837.378 94.6376 837.447 94.3542 837.513 94.0324C837.589 93.6673 837.659 93.2974 837.728 92.9252C837.797 92.5529 837.855 92.2527 837.912 91.9092C837.974 91.5274 838.031 91.1407 838.089 90.7516C838.139 90.4009 838.193 90.0551 838.235 89.6996C838.289 89.3058 838.327 88.9047 838.373 88.4988C838.412 88.1361 838.454 87.7783 838.489 87.4084C838.527 87.0025 838.558 86.5918 838.589 86.1811C838.615 85.8137 838.646 85.4606 838.669 85.0787C838.696 84.6416 838.712 84.2045 838.731 83.765C838.731 83.4143 838.769 83.0637 838.781 82.7106V82.6938H803.284L803.269 82.6914Z" fill="#8A8A8A"/>
<path d="M0.0384521 82.6914V82.7082C0.0384521 83.0613 0.0691993 83.4119 0.0845709 83.7626C0.0845709 84.2021 0.119152 84.6392 0.146053 85.0763C0.16911 85.4414 0.199854 85.7968 0.230597 86.1643C0.26134 86.5822 0.28824 87.0001 0.326669 87.4108C0.361255 87.7711 0.403528 88.1313 0.441957 88.482C0.488072 88.8879 0.530344 89.2937 0.580301 89.6828C0.626416 90.0383 0.680216 90.3841 0.730174 90.7348C0.787817 91.1239 0.841621 91.5105 0.90695 91.8924C0.964593 92.2359 1.02608 92.5697 1.08757 92.9036C1.15674 93.2806 1.22975 93.6529 1.30277 94.0179C1.37194 94.3422 1.44495 94.6592 1.51797 94.9786C1.59867 95.3389 1.68321 95.6992 1.77544 96.0402C1.8523 96.3476 1.93684 96.6454 2.02139 96.9433C2.11746 97.2795 2.21353 97.6109 2.31729 97.9352C2.40568 98.2186 2.49791 98.4972 2.59398 98.7686C2.70158 99.0856 2.81686 99.3906 2.93215 99.6908C3.03207 99.9502 3.13582 100.202 3.23958 100.45C3.36256 100.738 3.48937 101.014 3.62387 101.286C3.73532 101.526 3.84676 101.747 3.96205 101.963C4.10039 102.225 4.24258 102.467 4.38861 102.71C4.50774 102.907 4.62687 103.108 4.74984 103.293C4.90356 103.534 5.06496 103.731 5.22636 103.937C5.35317 104.103 5.47999 104.271 5.61065 104.417C5.78358 104.612 5.96419 104.78 6.14097 104.948C6.27547 105.075 6.40613 105.215 6.52526 105.328C6.71358 105.472 6.91502 105.609 7.12859 105.738C7.26309 105.825 7.39375 105.926 7.51288 106C7.7477 106.112 8.00006 106.208 8.26609 106.288C8.38383 106.337 8.5057 106.382 8.63116 106.423C8.99678 106.518 9.38823 106.567 9.78403 106.569H35.9349V82.6914H0.0384521Z" fill="#8A8A8A"/>
<path d="M259.503 82.6914V106.572H579.704V82.6914H259.503Z" fill="#8A8A8A"/>
<path d="M233.679 0.0816505V0H115.575V0.0576391C109.03 0.320102 102.832 1.99121 98.0347 4.78686C93.2379 7.58251 90.1382 11.3302 89.2628 15.3927H61.6823C54.8537 15.3927 48.3047 17.088 43.4762 20.1058C38.6476 23.1235 35.9349 27.2165 35.9349 31.4842V140.599C35.9349 144.867 38.6476 148.96 43.4762 151.978C48.3047 154.996 54.8537 156.691 61.6823 156.691H89.2628C90.1374 160.754 93.2367 164.502 98.0336 167.298C102.831 170.094 109.029 171.766 115.575 172.028V172.086H233.679V172.004C240.736 171.601 247.297 169.563 252.075 166.292C256.852 163.021 259.502 158.752 259.503 154.323V17.7608C259.502 13.332 256.852 9.0633 252.074 5.79248C247.297 2.52166 240.736 0.484815 233.679 0.0816505Z" fill="#987100"/>
<path d="M777.513 15.3927H749.945C749.069 11.3302 745.969 7.58251 741.173 4.78686C736.376 1.99121 730.178 0.320102 723.632 0.0576391V0H605.521V0.0816505C598.465 0.485944 591.906 2.52329 587.13 5.79399C582.354 9.06469 579.705 13.3327 579.704 17.7608V154.323C579.706 158.752 582.355 163.021 587.133 166.292C591.91 169.563 598.471 171.601 605.529 172.004V172.086H723.632V172.028C730.178 171.766 736.377 170.094 741.174 167.298C745.971 164.502 749.07 160.754 749.945 156.691H777.521C784.35 156.691 790.899 154.996 795.727 151.978C800.556 148.96 803.268 144.867 803.268 140.599V31.489C803.269 29.375 802.604 27.2817 801.31 25.3285C800.016 23.3753 798.119 21.6006 795.727 20.1058C793.336 18.611 790.496 17.4253 787.371 16.6166C784.245 15.8079 780.896 15.392 777.513 15.3927Z" fill="#987100"/>
<path d="M278.202 69.6669H553.876C556.138 69.6669 558.307 69.1054 559.906 68.106C561.505 67.1065 562.404 65.7509 562.404 64.3375C562.404 62.924 561.505 61.5685 559.906 60.569C558.307 59.5695 556.138 59.0081 553.876 59.0081H278.202C275.941 59.0081 273.772 59.5695 272.173 60.569C270.573 61.5685 269.675 62.924 269.675 64.3375C269.675 65.7509 270.573 67.1065 272.173 68.106C273.772 69.1054 275.941 69.6669 278.202 69.6669Z" fill="#CFCFCF"/>
<path d="M88.9669 17.7608C88.9765 16.9684 89.0703 16.1773 89.2474 15.3927H61.6823C54.8537 15.3927 48.3047 17.0881 43.4762 20.1058C38.6476 23.1236 35.9349 27.2165 35.9349 31.4843V140.6C35.9349 144.867 38.6476 148.96 43.4762 151.978C48.3047 154.996 54.8537 156.691 61.6823 156.691H89.2628C89.0803 155.907 88.9815 155.116 88.9669 154.323V17.7608Z" fill="#2C2C2C"/>
<path d="M144.627 15.4768V129.184C144.627 130.829 145.146 132.457 146.153 133.976C147.161 135.496 148.638 136.876 150.499 138.038C152.361 139.2 154.571 140.122 157.003 140.75C159.434 141.379 162.04 141.701 164.672 141.7H226.097V2.95899H164.672C162.04 2.95741 159.434 3.28004 157.002 3.90844C154.57 4.53684 152.36 5.45868 150.498 6.62126C148.636 7.78383 147.16 9.16433 146.152 10.6838C145.145 12.2033 144.627 13.832 144.627 15.4768Z" fill="#D5A310"/>
<path d="M249.65 129.184V15.4767C249.645 12.599 248.054 9.81011 245.146 7.57929C242.237 5.34847 238.187 3.81184 233.679 3.22791V141.454C238.194 140.87 242.248 139.33 245.157 137.095C248.067 134.86 249.654 132.066 249.65 129.184Z" fill="#D5A310"/>
<path d="M117.4 0H115.575V0.0576414V172.036V172.093H117.4H123.153V0H117.4Z" fill="#040304"/>
<path d="M233.675 3.21831V0.0816587V0H231.081H226.097V2.96133V141.702V172.093H231.081H233.675V172.012V141.442V3.21831Z" fill="#040304"/>
<path d="M777.513 15.3927H749.944C750.121 16.1773 750.215 16.9684 750.225 17.7608V154.323C750.215 155.115 750.122 155.906 749.944 156.691H777.521C784.35 156.691 790.899 154.996 795.727 151.978C800.556 148.96 803.268 144.867 803.268 140.6V31.4891C803.269 29.3751 802.604 27.2817 801.31 25.3285C800.016 23.3753 798.119 21.6006 795.727 20.1058C793.335 18.611 790.496 17.4254 787.371 16.6167C784.245 15.808 780.896 15.3921 777.513 15.3927Z" fill="#2C2C2C"/>
<path d="M632.821 15.5873V129.074C632.822 132.422 634.951 135.634 638.74 138.002C642.53 140.369 647.668 141.7 653.027 141.7H716.05V2.95898H653.027C647.668 2.95898 642.528 4.28946 638.739 6.65772C634.95 9.02598 632.821 12.238 632.821 15.5873Z" fill="#D5A310"/>
<path d="M739.715 129.074V15.5872C739.714 12.6847 738.114 9.87076 735.184 7.61895C732.253 5.36713 728.171 3.81481 723.625 3.22314V141.438C728.171 140.846 732.253 139.294 735.184 137.042C738.114 134.79 739.714 131.976 739.715 129.074Z" fill="#D5A310"/>
<path d="M723.621 3.22312V0.0576414V0H721.795H716.042V2.96133V141.702V172.093H721.795H723.621V172.036V141.438V3.22312Z" fill="#101126"/>
<path d="M608.115 0H605.521V0.0816587V172.012V172.093H608.115H613.099V0H608.115Z" fill="#101126"/>
<path d="M88.9668 17.7608C88.9765 16.9684 89.0702 16.1773 89.2474 15.3927H68.2152V156.698H89.2704C89.0849 155.912 88.9835 155.118 88.9668 154.323V17.7608Z" fill="#040304"/>
<path d="M749.944 15.3927C750.121 16.1773 750.215 16.9684 750.225 17.7608V154.323C750.215 155.115 750.122 155.906 749.944 156.691H770.996V15.3927H749.944Z" fill="#060415"/>
</g>
<defs>
<clipPath id="clip0_29_307">
<rect width="838.8" height="172.093" fill="white"/>
</clipPath>
</defs>
</svg>
