<svg width="500" height="223" viewBox="0 0 500 223" fill="none" xmlns="http://www.w3.org/2000/svg">
<path d="M499.433 111.652C498.435 99.7379 496.616 87.9185 493.99 76.2894C491.633 65.9434 488.717 55.751 485.259 45.7629C482.104 36.1098 478.005 26.8372 473.032 18.0976C471.189 14.9785 469.176 11.9778 467.003 9.11084C461.636 10.481 456.326 12.0124 451.053 13.6244C445.232 15.3975 439.45 17.1908 433.572 18.8028C427.695 20.4148 421.78 21.9058 415.846 23.3767C410.289 24.7469 404.695 26.0768 399.158 27.5477C396.097 28.3335 393.016 29.1597 389.879 29.7843C389.482 29.4216 389.085 29.0589 388.67 28.7164C382.754 23.7999 375.214 20.4147 368.07 17.1505C353.039 10.4166 337.414 5.30012 321.429 1.87717C317.376 0.94896 313.264 0.342821 309.126 0.0637214C304.791 -0.114382 300.449 0.081018 296.143 0.648045C287.223 1.57492 278.36 2.92497 269.516 4.35558C260.671 5.7862 251.94 7.23694 243.171 8.82875C234.856 10.34 226.446 11.7101 218.169 13.4632C214.26 14.2047 210.452 15.4567 206.83 17.1908C206.696 17.1158 206.546 17.0809 206.395 17.0901C200.234 16.9289 194.149 15.9013 187.969 15.7804C182.319 15.7119 176.672 16.089 171.074 16.9087C159.784 18.783 148.627 21.4758 137.681 24.9686C126.779 28.5166 115.708 31.4424 104.514 33.7336C98.7113 34.7071 92.8115 34.8359 86.9763 34.1164C81.1556 33.4716 75.4294 32.1015 69.741 30.9127C67.1331 30.3485 64.5062 29.8044 61.8793 29.3007C59.3347 29.0463 56.8092 28.6087 54.32 27.991C50.8616 27.185 47.4221 26.3589 43.9259 25.6335C40.1462 24.8477 36.1965 24.0417 32.2278 23.6185L29.2041 23.3364C25.4326 28.996 21.9807 34.8901 18.8667 40.9874C14.3882 49.7853 10.6506 58.9894 7.69773 68.4915C4.7612 77.9014 2.64816 87.5809 1.38568 97.4061C0.148897 107.011 -0.211858 116.722 0.308478 126.401C0.308478 127.751 0.478562 129.101 0.573054 130.431C1.82035 130.733 3.06764 130.975 4.35273 131.177C7.76806 131.684 11.206 132 14.6523 132.124C18.054 132.285 21.4557 132.386 24.8385 132.648C28.6182 132.95 32.3979 133.393 36.1776 133.917C43.7369 135.005 51.2962 136.436 58.8556 137.947C65.3755 139.176 72.0844 139.962 78.4721 141.252C79.8139 141.513 81.1178 141.836 82.4029 142.219C82.3937 144.722 82.5072 147.224 82.7431 149.714C83.0752 154.346 83.8735 158.926 85.1243 163.376C86.3154 167.546 88.3037 171.409 90.9639 174.72L91.9277 175.848C92.5183 176.561 93.1494 177.234 93.8175 177.863C95.1205 179.208 96.6206 180.318 98.2587 181.148C99.2171 181.722 100.223 182.2 101.263 182.578C102.207 182.898 103.185 183.087 104.174 183.142C104.942 183.33 105.717 183.472 106.498 183.566C108.954 183.858 111.432 183.858 113.888 183.566C116.643 183.236 119.351 182.56 121.957 181.551H122.26C123.896 181.245 125.495 180.738 127.022 180.039C126.918 181.239 126.918 182.446 127.022 183.646C127.201 186.7 127.76 189.716 128.685 192.613C129.74 195.839 131.595 198.701 134.052 200.894C136.571 203.115 139.464 204.804 142.575 205.871C144.267 206.476 145.997 206.947 147.753 207.282C149.203 207.634 150.7 207.715 152.176 207.523C153.137 209.279 154.423 210.807 155.955 212.017C158.133 213.863 160.468 215.489 162.929 216.873C165.077 218.205 167.351 219.292 169.713 220.117C170.261 220.298 170.791 220.439 171.339 220.58C174.249 222.494 178.539 222.273 181.922 221.89H182.337C183.007 221.89 183.676 221.85 184.341 221.769C186.224 221.498 188.074 221.012 189.859 220.318C191.976 219.553 194.017 218.606 196.058 217.699H196.171C198.061 216.49 199.951 215.241 201.841 214.072C207.945 217.575 214.506 220.088 221.306 221.527C228.175 223.146 235.262 223.433 242.226 222.374C245.499 221.887 248.647 220.708 251.487 218.908C253.348 217.724 254.9 216.061 256.003 214.072C261.535 216.627 267.569 217.699 273.579 217.195C277.242 216.726 280.693 215.114 283.5 212.561C284.875 211.331 286 209.816 286.808 208.108C287.225 207.18 287.463 206.173 287.507 205.146C288.668 205.949 289.903 206.624 291.192 207.161C292.326 207.624 293.479 208.027 294.669 208.39H294.802C296.96 209.266 299.258 209.684 301.567 209.619C304.456 209.922 307.369 209.436 310.034 208.208C312.463 206.876 314.517 204.881 315.987 202.426V202.264C316.838 200.554 317.473 198.732 317.876 196.844C318.116 194.295 318.071 191.725 317.744 189.187C320.56 188.18 323.414 187.172 326.248 186.286C327.363 185.923 328.46 185.54 329.556 185.117C329.436 185.813 329.564 186.531 329.915 187.132C330.924 188.708 332.263 190.012 333.827 190.94C335.417 192.007 337.108 192.892 338.873 193.58C342.783 194.967 346.934 195.408 351.024 194.869C355.187 194.542 359.229 193.227 362.855 191.021L363.025 190.88C364.663 189.67 366.024 188.081 367.006 186.232C367.987 184.383 368.565 182.321 368.694 180.201C368.708 180.142 368.703 180.079 368.679 180.024C368.655 179.969 368.613 179.924 368.562 179.898C368.675 178.971 368.789 178.065 368.921 177.158C369.318 174.659 369.734 172.141 369.904 169.602C370.077 167.585 370.001 165.553 369.677 163.557C370.827 163.591 371.976 163.469 373.097 163.194C375.148 162.72 377.154 162.046 379.088 161.179C383.102 159.331 386.992 157.19 390.73 154.772C394.5 152.476 398.062 149.812 401.369 146.813C403.933 144.437 406.298 141.828 408.437 139.015C410.63 138.713 412.822 138.39 415.014 138.007C418.038 137.484 421.043 136.879 424.029 136.275C430.038 135.045 436.029 133.716 442.02 132.406C454.058 129.766 466.153 127.288 478.172 124.548C484.232 123.204 490.292 121.774 496.353 120.256L499.962 119.389C499.792 116.77 499.66 114.211 499.433 111.652Z" fill="#545454"/>
<path d="M128.118 172.342C127.929 173.713 127.759 175.083 127.646 176.372C127.646 176.614 127.457 176.856 127.381 177.098C125.49 178.345 123.482 179.378 121.39 180.181C118.192 181.388 114.84 182.067 111.45 182.195H110.259C108.243 182.181 106.234 181.931 104.268 181.45C102.566 181.058 100.906 180.478 99.3169 179.717C98.0196 179.028 96.8125 178.161 95.7262 177.138C93.4941 175.003 91.5821 172.516 90.0567 169.763C89.2063 168.292 88.4504 166.761 87.7322 165.23C87.3921 164.524 87.0519 163.819 86.7495 163.094L86.5794 162.711C85.6636 159.366 85.0311 155.94 84.6896 152.475C84.3343 149.211 84.1576 145.928 84.1604 142.642H84.2549C84.1982 141.871 84.1982 141.096 84.2549 140.325C84.2549 137.412 85.0494 134.563 86.5416 132.124C87.4428 130.822 88.7058 129.856 90.1512 129.363C91.878 128.816 93.6855 128.618 95.4806 128.779C99.3636 129.041 103.139 130.247 106.517 132.305C109.753 134.584 112.336 137.77 113.982 141.514C115.831 145.356 117.258 149.412 118.234 153.603C118.877 156.182 119.255 158.802 119.954 161.361C120.108 161.924 120.31 162.47 120.559 162.993L119.368 162.106C119.746 163.248 120.162 164.377 120.615 165.491C123.198 167.386 125.794 169.253 128.401 171.093C128.25 171.557 128.175 171.96 128.118 172.342Z" fill="#9B9B9B"/>
<path d="M151.873 195.494C150.56 198.717 150.32 202.322 151.193 205.71C150.343 205.71 149.511 205.589 148.661 205.488H148.51C147.042 205.182 145.591 204.792 144.163 204.32C142.423 203.759 140.744 203.003 139.155 202.063C137.298 201.434 135.629 200.294 134.317 198.758C132.782 196.831 131.677 194.557 131.085 192.109C131.085 191.928 131.085 191.746 130.934 191.565C130.575 190.756 130.291 189.913 130.084 189.046C129.793 187.047 129.661 185.025 129.687 183.001C129.761 178.546 130.261 174.11 131.18 169.763C132.099 165.464 133.363 161.257 134.959 157.19L135.186 156.787C136.204 155 137.48 153.395 138.966 152.032C140.396 150.745 142.064 149.794 143.861 149.238C145.658 148.683 147.544 148.536 149.398 148.808C153.359 149.703 156.89 152.075 159.357 155.497C161.754 158.607 163.384 162.305 164.101 166.257C164.68 169.881 164.731 173.578 164.252 177.218L162.986 178.568C162.211 179.435 161.455 180.321 160.737 181.228C160.019 182.135 159.603 182.598 159.055 183.243C158.507 183.888 158.412 184.23 158.11 184.734C157.808 185.238 157.43 185.762 157.127 186.266C156.447 187.293 155.767 188.281 155.067 189.328C155.029 189.383 154.981 189.43 154.926 189.464C154.871 189.499 154.81 189.521 154.746 189.53C153.604 191.41 152.641 193.408 151.873 195.494Z" fill="#9B9B9B"/>
<path d="M182.3 221.769C183.495 221.613 184.682 221.384 185.853 221.084C184.694 221.444 183.503 221.674 182.3 221.769Z" fill="#9B9B9B"/>
<path d="M197.286 213.85C196.492 214.354 195.661 214.818 194.81 215.241C193.11 216.087 191.371 216.893 189.67 217.759C187.931 218.712 186.073 219.39 184.152 219.774C182.365 220.094 180.558 220.262 178.747 220.278C177.667 220.295 176.588 220.241 175.515 220.117H174.873L174.457 219.956C172.406 219.433 170.392 218.76 168.428 217.941C165.993 216.775 163.638 215.428 161.379 213.911C160.415 213.266 159.489 212.561 158.488 211.896C157.486 211.231 156.9 210.284 156.239 209.418L156.069 209.196C155.535 208.344 155.043 207.463 154.595 206.556C154.481 206.254 154.368 205.952 154.273 205.629C153.588 202.749 153.732 199.716 154.689 196.925C155.484 193.984 156.58 191.146 157.959 188.462C159.534 185.575 161.39 182.874 163.496 180.402C164.05 179.731 164.617 179.059 165.197 178.387L166.576 177.279C168.925 174.529 171.756 172.298 174.91 170.71C176.603 169.774 178.51 169.368 180.41 169.542C182.527 169.943 184.493 170.977 186.079 172.524C188.855 175.311 190.587 179.077 190.955 183.122C191.486 187.105 191.156 191.164 189.991 194.99C189.311 197.146 188.366 199.323 187.648 201.519H187.459C187.048 203.441 186.889 205.414 186.986 207.382C186.995 208.325 187.203 209.253 187.596 210.098C187.989 210.942 188.556 211.681 189.254 212.259C189.67 212.037 189.991 211.674 189.821 211.352C188.897 209.5 188.553 207.382 188.838 205.307C190.124 206.234 191.409 207.161 192.713 208.047C194.848 209.518 196.984 210.989 199.195 212.359C198.552 212.863 197.966 213.407 197.286 213.85Z" fill="#9B9B9B"/>
<path d="M325.927 184.412C323.13 185.339 320.258 186.245 317.574 187.253C317.073 185.548 316.441 183.89 315.684 182.296C314.121 179.053 312.379 175.911 310.469 172.886C308.579 169.763 306.689 166.62 304.799 163.557C302.909 160.494 300.471 157.19 298.222 154.046C293.762 147.8 289.416 141.513 284.994 135.207L284.691 134.743C288.383 137.336 292.043 139.962 295.671 142.622C304.798 148.955 313.425 156.071 321.467 163.9C323.357 165.914 325.247 167.929 327.023 169.944C328.715 171.847 330.287 173.866 331.729 175.989C332.704 177.581 333.509 179.284 334.129 181.067C331.464 182.364 328.724 183.481 325.927 184.412Z" fill="#9B9B9B"/>
<path d="M366.88 162.69C365.914 160.118 364.643 157.687 363.1 155.457C361.607 153.019 359.963 150.661 358.243 148.344C354.785 143.669 351.081 139.156 347.604 134.501C343.824 129.363 340.044 124.265 336.265 119.087C334.375 116.568 332.617 114.009 330.841 111.45C329.064 108.891 327.609 106.695 325.833 104.398C322.788 100.556 319.374 97.0644 315.646 93.9805C311.934 91.6964 308.462 88.9944 305.29 85.9207L305.101 85.7192C303.211 84.2281 301.151 82.7572 299.167 81.3065C293.932 77.5183 288.66 73.7705 283.292 70.1436C277.925 66.5167 272.369 62.9099 266.926 59.2427C263.147 56.7845 259.688 54.1651 256.022 51.6665C254.132 52.0292 252.242 52.4926 250.353 53.0568L249.011 53.48L247.008 54.165L246.289 54.5076C240.129 57.4293 234.081 60.5525 227.864 63.3532C224.5 64.9115 221.085 66.3891 217.621 67.7861C209.949 71.406 202.01 74.3444 193.884 76.5713C189.785 77.6765 185.607 78.4179 181.393 78.7878H181.052C173.338 80.0634 165.471 79.8518 157.826 78.1631C155.15 77.5129 152.595 76.3892 150.267 74.8385C147.476 73.6801 145.191 71.4525 143.86 68.5921C141.649 62.8898 147.64 59.283 152.535 57.0867C155.313 55.8173 158.034 54.6486 160.661 53.0568C163.937 51.1762 167.143 49.215 170.28 47.1732C176.431 43.1864 182.294 38.7141 187.818 33.7938C190.577 31.3155 193.185 28.7363 195.68 26.0766C197.774 23.7611 200.064 21.6566 202.521 19.7899C203.145 19.3466 203.768 18.9033 204.411 18.5004C203.334 18.5004 202.275 18.5004 201.198 18.5004C195.094 18.2787 189.027 17.5735 182.885 17.7548C177.182 17.9509 171.498 18.577 165.877 19.6287C154.557 21.9277 143.355 24.8397 132.313 28.3535C126.814 29.9654 121.315 31.5774 115.759 32.9879C110.146 34.5765 104.419 35.6616 98.6366 36.232C86.7874 37.0984 75.2783 33.9752 63.8825 31.4767C58.6666 30.3483 53.3562 29.4617 48.178 28.152L47.6678 28.0109L44.3416 27.608C41.8471 27.2654 39.3714 26.8423 36.8957 26.3587C34.7602 25.9557 32.6247 25.5527 30.4514 25.3714C29.6198 25.3714 28.7694 25.2505 27.9379 25.2505C24.6547 30.3209 21.6267 35.5739 18.8667 40.9872C14.3882 49.7851 10.6506 58.9892 7.69773 68.4914C4.7612 77.9012 2.64816 87.5807 1.38568 97.4059C0.148897 107.011 -0.211858 116.722 0.308478 126.401C0.308478 127.006 0.308477 127.61 0.421867 128.194C2.67285 128.84 4.96595 129.304 7.28197 129.585C13.9342 130.431 20.6998 130.27 27.3898 130.894C41.11 132.144 54.4334 135.247 67.9646 137.342C72.8026 138.088 77.6405 138.854 82.3651 139.962V139.297C82.4346 137.497 82.8436 135.731 83.5677 134.104C84.2918 132.477 85.3161 131.022 86.5795 129.827C89.8723 127.538 93.8716 126.707 97.7295 127.509C101.727 127.992 105.561 129.476 108.917 131.841C112.17 134.56 114.72 138.118 116.325 142.178C118.199 146.373 119.601 150.79 120.502 155.336C120.767 156.686 121.012 158.016 121.334 159.366C121.545 160.541 121.921 161.675 122.449 162.731C123.585 164.316 124.85 165.793 126.228 167.144L128.742 168.796C129.408 165.598 130.423 162.494 131.765 159.547C133.442 155.441 136.199 151.941 139.703 149.472C143.29 147.158 147.584 146.435 151.665 147.457C155.737 148.781 159.289 151.492 161.776 155.175C164.12 158.514 165.658 162.417 166.255 166.539C166.629 169.316 166.674 172.132 166.387 174.921C169.392 171.51 173.247 169.085 177.499 167.929C179.653 167.56 181.86 167.793 183.903 168.605C185.947 169.418 187.758 170.782 189.16 172.564C191.667 175.832 193.094 179.89 193.223 184.109C193.491 188.432 192.845 192.763 191.333 196.783C190.842 198.154 190.275 199.584 189.802 201.015C189.573 201.464 189.432 201.957 189.387 202.466C189.387 203.654 190.407 204.481 191.276 205.146C192.146 205.81 193.695 206.616 194.867 207.422C196.436 208.49 198.061 209.538 199.724 210.505C201.009 211.231 202.313 211.916 203.636 212.52C209.589 215.805 215.953 218.159 222.534 219.512C229.175 221.119 236.039 221.393 242.774 220.318C247.178 219.492 252.526 217.276 254.113 213.225C252.091 212.339 250.107 211.372 248.16 210.364H247.82L244.589 208.611H244.872C242.189 207.16 239.524 205.669 236.935 204.098C233.344 201.922 229.823 199.658 226.371 197.307C222.931 194.97 219.473 192.653 216.128 190.215C212.783 187.777 209.778 185.177 206.319 182.981L203.882 181.43C201.765 180.362 199.384 179.797 197.21 178.85C196.87 178.689 197.362 178.246 197.607 178.266H197.815C197.877 178.25 197.942 178.25 198.004 178.266C200.396 178.16 202.763 178.812 204.808 180.14C205.186 180.321 205.545 180.503 205.923 180.724C208.644 182.256 211.214 184.029 213.784 185.742C218.509 188.905 223.233 192.089 227.939 195.232C232.645 198.375 237.388 201.277 242.396 203.916C247.404 206.556 252.413 209.135 257.515 211.472C260.077 212.698 262.701 213.768 265.377 214.676C266.057 214.878 266.737 215.079 267.437 215.24C269.581 215.553 271.756 215.553 273.9 215.24C276.796 214.832 279.523 213.553 281.762 211.553C282.897 210.592 283.81 209.365 284.429 207.967C285.048 206.57 285.358 205.039 285.333 203.493C284.867 203.09 284.395 202.667 283.916 202.224C283.28 201.357 282.55 200.573 281.743 199.887C280.817 198.879 279.853 197.872 279.003 196.804L275.903 193.801C271.802 189.912 267.437 186.225 263.015 182.639C258.592 179.052 254.359 175.365 249.956 171.818L249.483 171.435L246.252 168.937L245.609 168.433C244.967 167.99 244.305 167.567 243.719 167.184C242.635 166.543 241.479 166.048 240.28 165.713C239.103 165.428 237.889 165.353 236.689 165.491C235.933 165.491 236.425 164.746 236.689 164.585C238.048 164.097 239.49 163.929 240.916 164.092C242.342 164.256 243.717 164.747 244.948 165.532C247.471 167.02 249.857 168.761 252.072 170.73C256.476 174.276 260.766 177.944 265.15 181.51C268.93 184.533 272.52 187.555 276.035 190.839L276.848 191.565C277.585 192.23 278.284 192.915 278.965 193.58C282.444 197.161 286.157 200.474 290.077 203.493C291.369 204.443 292.72 205.298 294.121 206.052C296.451 206.921 298.867 207.503 301.321 207.785C304.221 208.3 307.199 207.843 309.845 206.475C311.152 205.555 312.303 204.404 313.246 203.07C314.199 201.776 314.963 200.336 315.514 198.798C316.293 196.559 316.622 194.17 316.478 191.786C316.365 191.242 316.213 190.698 316.081 190.134C316.09 189.993 316.09 189.852 316.081 189.711C315.947 188.034 315.392 186.426 314.475 185.056C312.112 179.949 309.402 175.033 306.367 170.347C302.588 163.879 298.165 157.754 293.762 151.628C289.718 145.966 285.768 140.224 282.007 134.4C279.643 130.616 277.684 126.561 276.168 122.311C275.576 120.588 275.121 118.815 274.807 117.011C275.118 118.324 275.581 119.59 276.187 120.779C276.996 122.342 277.886 123.855 278.851 125.313L281.781 129.927C289.056 134.985 296.408 140.002 303.476 145.241C312.175 151.551 320.266 158.766 327.628 166.781C330.939 170.132 333.705 174.048 335.811 178.367C336.529 180.039 337.115 181.772 337.701 183.485C337.584 185.002 337.226 186.488 336.642 187.877V187.696C335.962 186.145 335.414 184.533 334.753 182.921C333.751 183.424 332.749 183.888 331.71 184.311C330.935 185.359 332.334 186.769 333.109 187.515C334.43 188.706 335.891 189.709 337.455 190.497C338.861 191.265 340.336 191.879 341.858 192.33C345.476 193.278 349.232 193.456 352.914 192.854C356.487 192.527 359.917 191.199 362.855 189.006C364.032 187.939 364.968 186.603 365.595 185.097C365.669 184.969 365.732 184.834 365.784 184.694C365.972 183.245 366.067 181.784 366.067 180.321C366.206 179.233 366.357 178.145 366.521 177.057C367.22 172.403 368.316 167.305 366.88 162.69Z" fill="#737373"/>
<path d="M499.433 111.652C498.435 99.7378 496.616 87.9184 493.99 76.2893C491.633 65.9433 488.718 55.7509 485.259 45.7628C482.104 36.1098 478.006 26.8371 473.032 18.0975C471.52 15.5586 469.895 13.0601 468.137 10.6421C458.783 12.9795 449.674 15.9616 440.432 18.702C428.867 22.0669 417.131 24.908 405.395 27.7088C400.689 28.8372 395.946 30.1872 391.24 31.0536C395.284 34.8619 398.799 39.1134 402.863 42.9419C403.108 43.1635 402.522 43.5866 402.277 43.3851C399.707 41.3927 397.241 39.2537 394.887 36.9776C392.487 34.7208 390.163 32.4036 387.574 30.3081C384.662 27.9822 381.548 25.958 378.276 24.2632C371.164 20.4844 363.865 17.1212 356.41 14.1885C348.98 11.2955 341.41 8.82701 333.732 6.79357C325.698 4.3336 317.478 2.62782 309.164 1.69574C304.933 1.48067 300.693 1.62892 296.484 2.13904C292.118 2.60248 287.753 3.14651 283.425 3.77114C274.788 5.04056 266.19 6.53162 257.591 7.98239C248.992 9.43316 240.582 11.0854 231.946 12.6772C227.845 13.4429 223.744 14.1683 219.662 14.9541C216.791 15.4642 213.961 16.2051 211.195 17.1706C206.018 19.212 201.373 22.5416 197.645 26.8827C192.766 32.1317 187.495 36.9499 181.884 41.2896C176.103 45.7056 170.076 49.743 163.836 53.3793C161.242 54.9621 158.56 56.3752 155.804 57.6107C153.154 58.6046 150.618 59.916 148.245 61.5197C147.201 62.1797 146.441 63.2506 146.13 64.5018C145.819 65.7531 145.981 67.0845 146.582 68.2094C148.126 70.6665 150.363 72.5365 152.97 73.549C160.775 77.0752 171.471 76.8535 179.938 76.1281C186.713 75.5038 193.427 74.2703 200.008 72.4408C205.337 70.7079 210.591 68.8139 215.731 66.7385L219.832 65.0257C223.819 63.172 227.731 61.2376 231.681 59.3234C235.631 57.4092 239.373 55.6763 243.323 54.0442C246.063 52.6942 248.822 51.3442 251.695 50.236C252.961 49.7322 254.284 49.2889 255.607 48.9061C256.551 49.6315 257.496 50.3569 258.498 51.042C259.667 51.8928 260.938 52.5706 262.278 53.0569C266.719 56.1801 271.292 59.1018 275.828 62.1645C283.104 66.9802 290.304 71.8766 297.353 76.9341C300.942 80.1514 304.73 83.1067 308.692 85.7798C309.864 86.5454 311.035 87.291 312.226 88.0164L315.76 90.797C319.275 93.1142 322.941 95.1493 326.627 97.0837C332.831 100.447 339.332 103.146 346.035 105.143C353.149 107.058 360.451 108.066 367.787 108.146C374.326 108.267 380.827 107.702 387.347 107.441C384.947 108.468 382.471 109.455 379.958 110.181C374.683 110.624 369.388 110.725 364.102 110.483C356.657 110.21 349.273 108.944 342.123 106.715C336.137 104.703 330.32 102.155 324.737 99.0986C327.691 102.515 330.437 106.129 332.958 109.919C340.177 120.336 347.755 130.552 355.636 140.587C359.417 145.212 362.908 150.099 366.086 155.215C367.146 156.909 368.081 158.687 368.883 160.535C374.855 160.535 377.765 158.802 381.64 157.27C385.802 155.552 389.719 153.226 393.281 150.359C395.171 148.949 396.721 147.437 398.365 145.906C400.009 144.375 401.766 142.904 403.411 141.372C409.382 135.791 412.671 128.718 416.488 121.928L416.998 120.638V121.142C416.998 120.961 417.187 120.78 417.301 120.598C417.414 120.417 417.792 120.397 417.698 120.598C417.282 121.686 416.847 122.794 416.394 123.862C415.94 124.93 415.883 125.535 415.6 126.341C414.608 129.11 413.34 131.758 411.82 134.239C411.253 135.186 410.63 136.113 409.93 137.02L414.882 136.093C426.75 133.877 438.448 131.157 450.241 128.658C462.033 126.159 474.223 123.56 486.148 120.78C490.778 119.691 495.408 118.624 500 117.455C499.792 115.541 499.603 113.626 499.433 111.652Z" fill="#9B9B9B"/>
<g opacity="0.35" style="mix-blend-mode:multiply">
<path d="M205.923 22.5908C214.162 18.8228 223.29 17.3318 232.248 15.5183C242.926 13.3623 253.698 11.4884 264.526 9.89662C284.124 7.19658 304.326 5.36297 323.924 9.01004C341.867 12.5303 359.18 19.0303 375.233 28.273C390.03 36.5017 403.737 46.7871 415.997 58.86C415.406 56.2982 414.367 53.8783 412.935 51.727C411.234 48.8054 409.307 46.0046 407.644 43.0627C405.981 40.1209 402.9 34.741 406.737 31.9805C409.564 30.4054 412.651 29.4271 415.827 29.0991C419.739 28.3536 423.594 27.5879 427.468 26.7013C437.994 24.2632 448.502 21.7244 458.877 18.8632C463.035 17.7146 467.173 16.5057 471.312 15.2967C470.292 13.725 469.252 12.1735 468.137 10.6421C458.783 12.9795 449.674 15.9616 440.432 18.702C428.867 22.0669 417.131 24.908 405.395 27.7088C400.689 28.8372 395.946 30.1872 391.24 31.0536C395.284 34.8619 398.799 39.1134 402.862 42.9418C403.108 43.1635 402.522 43.5866 402.277 43.3851C399.707 41.3927 397.24 39.2537 394.887 36.9776C392.487 34.7208 390.163 32.4036 387.574 30.3081C384.662 27.9821 381.548 25.958 378.276 24.2632C371.164 20.4844 363.865 17.1212 356.41 14.1884C348.98 11.2955 341.409 8.82701 333.732 6.79357C325.698 4.3336 317.477 2.62782 309.164 1.69574C304.933 1.48067 300.692 1.62892 296.484 2.13904C292.118 2.60248 287.752 3.14651 283.425 3.77114C274.788 5.04056 266.189 6.53162 257.591 7.98239C248.992 9.43316 240.582 11.0854 231.946 12.6772C227.845 13.4429 223.744 14.1683 219.662 14.9541C216.791 15.4642 213.961 16.2051 211.195 17.1706C206.018 19.212 201.373 22.5416 197.645 26.8827L197.437 27.1244C200.184 25.4447 203.017 23.9311 205.923 22.5908Z" fill="#7D6A5E"/>
</g>
<g opacity="0.35" style="mix-blend-mode:multiply">
<path d="M499.433 111.652C498.435 99.7379 496.616 87.9184 493.99 76.2894C493.027 71.9774 491.93 67.6855 490.74 63.3937C488.189 64.5623 485.637 65.731 483.086 66.8594C471.113 72.5252 458.553 76.6578 445.667 79.1708C441.828 80.0853 437.832 79.9327 434.064 78.7275C431.766 77.7511 429.878 75.918 428.753 73.5692C425.937 68.1288 425.125 62.1041 419.814 58.0541C421.043 73.6699 423.499 89.9709 418.151 105.204C415.768 111.452 412.284 117.157 407.889 122.009C403.725 127.01 399.09 131.54 394.056 135.529C389.747 138.894 384.512 142.44 378.635 143.105C372.757 143.77 368.505 139.398 365.406 135.509C361.853 131.109 358.953 126.156 356.807 120.82C356.362 120.003 356.128 119.075 356.128 118.13C356.128 117.185 356.362 116.257 356.807 115.44C358.225 113.526 361.324 112.962 363.629 112.438C372.587 110.423 382.131 110.1 390.238 105.728C397.133 101.927 403.09 96.4458 407.625 89.7291C404.223 90.5956 400.84 91.4821 397.439 92.3284C383.019 95.8949 368.071 98.8569 353.046 97.0434C345.36 95.9736 337.818 93.9447 330.576 90.9986C323.792 88.3972 317.224 85.1957 310.941 81.4275C305.203 77.8707 299.743 73.8278 294.613 69.3378C289.553 64.7163 284.17 60.513 278.511 56.7645C272.24 52.6516 265.08 50.3335 257.723 50.0345C250.223 50.1133 242.772 51.3277 235.593 53.6413C212.121 60.3914 189.746 72.2393 164.327 71.1109C159.168 70.8893 147.565 69.4385 149.549 62.3862C150.569 58.7593 155.464 56.3413 158.771 54.4876C163.541 52.2398 168.174 49.6758 172.643 46.8106C184.473 38.3277 193.903 27.5678 205.375 18.7221C206.263 18.0371 207.264 17.3721 208.096 16.7072L206.962 17.2512C206.828 17.1762 206.678 17.1414 206.527 17.1505C200.367 16.9893 194.281 15.9617 188.102 15.8408C182.451 15.7723 176.804 16.1494 171.206 16.9691C159.916 18.8434 148.759 21.5362 137.813 25.029C126.911 28.577 115.84 31.5028 104.646 33.794C98.8437 34.7675 92.9439 34.8963 87.1087 34.1768C81.288 33.5321 75.5618 32.1619 69.8734 30.9731C67.2654 30.4089 64.6386 29.8648 62.0117 29.3611C59.4671 29.1067 56.9416 28.6691 54.4524 28.0514C50.994 27.2454 47.5545 26.4193 44.0583 25.6939C40.2786 24.9081 36.3288 24.1021 32.3602 23.6789L29.3364 23.3969C27.7679 25.7544 26.256 28.132 24.8008 30.5499C34.25 32.8268 44.0583 34.338 53.7531 35.7284C59.725 36.5746 65.7158 37.3605 71.6688 38.2269C78.0014 39.2684 84.3889 39.8876 90.7939 40.0807C103.338 40.1113 115.828 38.3424 127.929 34.8216C134.052 33.1694 140.137 31.3761 146.242 29.6835C151.911 28.132 157.581 26.8223 163.25 25.3916C167.786 24.2431 172.265 22.9535 176.895 22.208C180.982 21.2588 185.221 21.3417 189.273 22.4498C189.33 22.4592 189.385 22.4812 189.433 22.5142C189.482 22.5473 189.524 22.5909 189.556 22.642C189.588 22.6932 189.609 22.7509 189.619 22.8115C189.629 22.872 189.627 22.9342 189.613 22.9939C188.738 25.4283 187.458 27.6741 185.834 29.6231C178.123 39.2747 165.99 45.7427 155.2 52.2711C150.947 54.8503 146.336 56.9257 142.065 59.4847C138.172 61.8421 133.013 65.187 132.616 69.7408C132.125 75.0401 138.285 79.1305 143.067 81.1253C149.203 83.4657 155.697 84.5592 162.211 84.3492C175.962 84.009 189.585 81.4478 202.615 76.7528C211.105 74.0003 219.424 70.6826 227.523 66.8191C234.214 63.5347 241.282 59.6257 249.143 59.3436C255.909 59.0817 262.202 62.6079 267.361 66.1542C273.39 70.1841 278.927 75.1006 284.502 79.7148C291.324 85.3768 297.92 91.2202 304.704 96.9024C308.012 99.6427 311.489 102.262 314.626 105.164C317.763 108.065 320.636 111.209 323.47 114.332C326.305 117.455 328.856 120.195 331.521 123.137C333.664 125.383 335.642 127.801 337.436 130.371C339.036 132.777 339.986 135.605 340.182 138.546C340.379 141.488 339.815 144.431 338.551 147.055C332.882 159.285 316.308 147.961 309.731 142.682C306.632 140.204 303.533 137.766 300.377 135.348C296.691 132.547 293.29 129.303 289.416 126.784C284.748 123.641 279.362 121.505 274.467 118.724L273.258 118.301C271.765 117.797 270.253 117.314 268.722 116.911C270.118 121.889 272.311 126.572 275.204 130.754C276.64 133.091 278.171 135.388 279.683 137.685C280.798 139.378 281.837 141.09 282.971 142.763C285.145 145.987 287.488 149.13 289.661 152.354C292.331 156.173 294.708 160.216 296.767 164.444C298.672 167.943 299.609 171.946 299.47 175.989C299.327 177.63 298.729 179.188 297.75 180.462C296.183 182.347 294.164 183.74 291.91 184.492C286.864 186.185 281.346 184.492 276.792 182.477C272.267 180.184 267.99 177.373 264.035 174.095C259.386 170.428 254.907 166.176 249.105 164.02C246.455 162.954 243.599 162.601 240.79 162.993C239.275 163.243 237.795 163.696 236.387 164.343C242.881 168.337 249.023 172.95 254.737 178.125C260.407 183.465 265.15 189.751 266.775 197.046C266.787 197.116 266.784 197.189 266.765 197.258C266.746 197.327 266.713 197.391 266.667 197.443C266.621 197.496 266.564 197.537 266.501 197.562C266.438 197.588 266.37 197.597 266.303 197.59C258.177 197.912 249.635 198.275 241.924 195.575C235.234 193.217 229.621 188.905 224.084 184.936C218.547 180.966 212.991 177.662 207.378 174.095C201.973 170.335 196.119 167.366 189.972 165.27C183.477 163.174 176.467 163.898 170.469 167.285C170.406 167.319 170.337 167.339 170.267 167.345C170.196 167.35 170.125 167.34 170.058 167.316C169.991 167.291 169.93 167.253 169.877 167.202C169.824 167.152 169.781 167.091 169.751 167.023C169.17 163.361 168.31 159.756 167.181 156.243C166.022 152.586 163.872 149.378 161.002 147.025C158.133 144.672 154.673 143.28 151.061 143.025C142.821 142.46 135.753 147.74 130.159 152.475C130.07 152.528 129.969 152.555 129.866 152.555C129.764 152.555 129.663 152.528 129.573 152.475C125 149.573 123.016 144.798 120.975 140.385C118.585 135.027 114.907 130.438 110.316 127.086C105.713 123.583 100.149 121.811 94.498 122.049C91.6377 122.292 88.8249 122.971 86.1449 124.064C83.9698 125.015 81.6352 125.481 79.2848 125.434C73.3696 125.212 67.8513 123.218 62.2763 121.686C55.8508 119.933 49.4254 118.261 43.0189 116.447C36.6123 114.634 30.1491 112.659 23.8937 110.403C18.9612 108.569 14.1233 106.494 9.32309 104.358C6.58282 103.189 3.65358 101.96 0.951116 100.57C0.00383302 109.155 -0.236466 117.812 0.232976 126.442C0.232976 127.792 0.40306 129.142 0.497552 130.471C1.74484 130.774 2.99214 131.016 4.27723 131.217C7.69256 131.724 11.1305 132.04 14.5768 132.164C17.9785 132.325 21.3802 132.426 24.763 132.688C28.5427 132.99 32.3224 133.433 36.1021 133.957C43.6614 135.045 51.2207 136.476 58.7801 137.987C65.3 139.216 72.0089 140.002 78.3966 141.292C79.7384 141.554 81.0423 141.876 82.3274 142.259C82.3182 144.762 82.4317 147.264 82.6676 149.755C82.8566 151.77 83.0834 153.926 83.4046 156.001C83.4046 155.014 83.2535 153.986 83.2157 152.999C82.8625 148.707 83.098 144.383 83.9149 140.163C84.2686 138.32 85.0628 136.606 86.2205 135.186C87.3602 133.952 88.7998 133.079 90.3781 132.668C91.7888 132.358 93.2455 132.378 94.6483 132.726C96.051 133.074 97.3665 133.742 98.5044 134.683C101.039 136.655 103.183 139.141 104.816 141.997C106.308 144.371 107.383 147.013 107.991 149.795C108.823 154.167 109.012 158.641 109.579 163.053C109.857 165.338 110.306 167.595 110.921 169.803C111.213 170.852 111.58 171.876 112.017 172.866C112.605 173.864 113.303 174.784 114.096 175.606C114.623 176.239 115.013 176.987 115.238 177.799C115.464 178.61 115.519 179.465 115.4 180.301C115.06 181.651 114.266 182.821 113.17 183.586H113.699C116.454 183.256 119.163 182.58 121.768 181.571H122.071C123.708 181.265 125.306 180.758 126.833 180.06C126.729 181.259 126.729 182.467 126.833 183.666C126.824 183.807 126.824 183.949 126.833 184.089C127.029 180.938 127.51 177.813 128.269 174.76C129.201 171.056 130.573 167.495 132.351 164.162C133.228 162.526 134.22 160.963 135.318 159.487C136.431 157.84 137.862 156.466 139.514 155.457C140.763 154.744 142.204 154.51 143.596 154.792C144.92 155.136 146.118 155.894 147.035 156.968C149.077 159.378 150.318 162.437 150.569 165.673C150.767 169.981 150.19 174.29 148.869 178.367C147.496 182.638 146.571 187.057 146.109 191.545C145.963 197.185 147.27 202.761 149.889 207.664C150.579 207.755 151.278 207.755 151.968 207.664C152.929 209.42 154.215 210.948 155.748 212.158C156.69 212.915 157.668 213.621 158.677 214.273C156.891 210.928 155.881 207.177 155.729 203.332C155.705 198.58 157.102 193.943 159.716 190.094C161.607 187.264 163.732 184.62 166.066 182.195C168.112 179.784 170.593 177.838 173.361 176.473C174.425 175.958 175.605 175.776 176.763 175.949C177.322 176.073 177.853 176.316 178.323 176.662C178.794 177.008 179.195 177.45 179.503 177.964C180.377 179.517 180.913 181.259 181.071 183.062C181.287 185.258 181.12 187.478 180.58 189.61C179.578 194.043 177.575 198.275 176.989 202.788C176.676 204.994 176.871 207.249 177.556 209.357C178.187 211.007 179.163 212.482 180.41 213.669C182.886 216.188 186.363 218.162 189.16 220.52L189.859 220.318C191.976 219.553 194.017 218.606 196.058 217.699H196.171C198.061 216.49 199.951 215.241 201.841 214.072C207.945 217.575 214.506 220.088 221.306 221.527C228.175 223.146 235.262 223.433 242.226 222.374C245.499 221.887 248.647 220.708 251.487 218.908C253.348 217.724 254.901 216.061 256.003 214.072C261.535 216.627 267.569 217.699 273.579 217.195C277.242 216.726 280.694 215.114 283.5 212.561C284.875 211.331 286 209.816 286.808 208.108C287.225 207.18 287.463 206.173 287.507 205.146C288.668 205.949 289.903 206.624 291.192 207.161C292.326 207.624 293.479 208.027 294.669 208.39H294.802C296.96 209.266 299.258 209.684 301.567 209.619C304.456 209.921 307.369 209.436 310.034 208.208C312.463 206.876 314.517 204.881 315.987 202.425V202.264C316.838 200.554 317.473 198.732 317.877 196.844C318.116 194.295 318.071 191.725 317.744 189.187C320.56 188.18 323.414 187.172 326.249 186.286C327.363 185.923 328.46 185.54 329.556 185.117C329.436 185.813 329.564 186.531 329.915 187.132C330.924 188.708 332.263 190.012 333.827 190.94C335.417 192.007 337.108 192.892 338.873 193.58C342.783 194.967 346.934 195.408 351.024 194.869C355.187 194.542 359.229 193.227 362.855 191.021L363.025 190.88C364.663 189.67 366.024 188.081 367.006 186.232C367.988 184.383 368.565 182.321 368.694 180.201C368.709 180.142 368.703 180.079 368.679 180.024C368.655 179.969 368.613 179.924 368.562 179.898C368.675 178.971 368.789 178.065 368.921 177.158C369.318 174.659 369.734 172.141 369.904 169.602C370.078 167.585 370.001 165.553 369.677 163.557C370.827 163.591 371.976 163.469 373.098 163.194C375.148 162.72 377.154 162.046 379.088 161.179C383.102 159.331 386.992 157.19 390.73 154.772C394.5 152.476 398.062 149.812 401.369 146.813C403.933 144.437 406.298 141.828 408.437 139.015C410.63 138.713 412.822 138.39 415.014 138.007C418.038 137.484 421.043 136.879 424.029 136.275C430.038 135.045 436.029 133.716 442.02 132.406C454.058 129.766 466.153 127.288 478.172 124.548C484.232 123.204 490.293 121.774 496.353 120.256L499.962 119.389C499.792 116.77 499.66 114.211 499.433 111.652Z" fill="#7D6A5E"/>
</g>
<g opacity="0.35" style="mix-blend-mode:multiply">
<path d="M81.4958 141.493C82.1474 137.935 83.6735 134.625 85.9181 131.902C88.0349 129.738 90.638 128.191 93.4774 127.409C90.4915 127.772 87.8079 129.041 84.8409 129.625C83.5135 129.92 82.1684 130.115 80.8155 130.21C79.6328 130.227 78.4525 130.092 77.3004 129.807C69.977 128.249 62.5847 127.086 55.1515 126.321C47.5922 125.475 40.0329 124.83 32.4735 124.064C24.9142 123.298 17.6761 122.513 10.3624 121.324C6.92294 120.76 3.51493 120.088 0.138428 119.309C0.138428 121.686 0.232917 124.044 0.365206 126.401C0.365206 127.752 0.535294 129.102 0.629785 130.431C1.87708 130.734 3.12437 130.975 4.40945 131.177C7.82479 131.684 11.2627 132 14.7091 132.124C18.1108 132.285 21.5125 132.386 24.8953 132.648C28.6749 132.95 32.4546 133.393 36.2343 133.917C43.7936 135.005 51.353 136.436 58.9123 137.947C65.4322 139.176 72.1412 139.962 78.5288 141.252C79.5871 141.453 80.6076 141.715 81.6092 141.997C81.5805 141.827 81.5426 141.659 81.4958 141.493Z" fill="#7D6A5E"/>
</g>
<g opacity="0.35" style="mix-blend-mode:multiply">
<path d="M154.651 179.778C152.822 183.69 151.463 187.833 150.607 192.109C149.56 197.207 149.709 202.502 151.042 207.524L151.911 207.423C152.789 209.046 153.95 210.475 155.332 211.634C153.975 202.817 155.718 193.777 160.227 186.246C165.483 178.138 172.654 171.653 181.015 167.446C178.571 167.967 176.198 168.806 173.947 169.945C170.987 171.495 168.203 173.401 165.65 175.627C165.367 175.869 164.781 175.627 164.819 175.304C165.008 173.355 165.008 171.39 164.819 169.441C164.467 165.345 163.457 161.344 161.833 157.613C160.604 154.524 158.512 151.914 155.842 150.138C158.137 154.765 159.232 159.96 159.017 165.189C158.439 170.303 156.958 175.253 154.651 179.778Z" fill="#7D6A5E"/>
</g>
<g opacity="0.35" style="mix-blend-mode:multiply">
<path d="M156.485 212.682C157.203 213.246 157.921 213.81 158.677 214.334C157.199 211.51 156.237 208.412 155.842 205.206C155.83 207.714 156.045 210.218 156.485 212.682Z" fill="#7D6A5E"/>
</g>
<g opacity="0.35" style="mix-blend-mode:multiply">
<path d="M499.225 109.254C494.954 110.826 490.702 112.378 486.299 113.566C481.385 114.896 476.434 116.105 471.482 117.314C466.531 118.523 461.202 119.692 456.023 120.659C450.845 121.626 445.78 122.392 440.602 122.916C438.278 123.158 435.934 123.319 433.61 123.5C432.171 123.641 430.726 123.681 429.282 123.621C427.26 123.48 425.597 122.755 425.106 120.901C424.845 119.739 424.8 118.534 424.973 117.354C425.181 115.138 425.54 112.922 425.843 110.705C426.788 103.552 427.733 96.3989 428.337 89.2257C426.345 96.2079 423.699 102.959 420.438 109.375C415.972 118.429 410.093 126.606 403.051 133.555C399.668 136.938 395.963 139.937 391.996 142.501C388.033 145.186 383.46 146.669 378.767 146.793C374.285 146.544 370.015 144.683 366.653 141.514C363.387 138.461 360.324 135.168 357.487 131.661C350.93 124.225 342.369 117.556 338.589 108.63C338.476 108.348 338.778 108.086 339.061 108.065C342.538 108.035 346.014 108.197 349.474 108.549C355.541 109.133 361.607 110 367.73 110.02C373.554 110.146 379.341 109.008 384.739 106.675C376.575 105.184 368.241 104.66 360.001 103.774C352.413 103.033 344.952 101.217 337.814 98.3736C330.746 95.3713 323.754 92.1877 316.837 88.9234C306.505 84.1828 296.48 78.717 286.826 72.562C293.498 78.4255 301.151 83.3017 308.257 88.6816C311.967 91.469 315.462 94.5685 318.708 97.9504C321.898 101.398 324.842 105.096 327.515 109.013C332.806 116.669 337.304 124.769 342.86 132.285C344.618 134.663 346.526 136.94 348.322 139.297C350.117 141.655 352.253 144.617 353.991 147.357C355.749 150.114 357.207 153.075 358.338 156.183C359.373 158.865 359.75 161.785 359.434 164.666C358.968 167.48 357.49 169.988 355.314 171.657C352.748 173.75 349.641 174.953 346.413 175.103C339.874 175.345 334.412 170.771 330.349 166.741C327.93 164.343 325.719 161.784 323.527 159.225C321.618 156.92 319.599 154.721 317.48 152.636C314.501 149.989 311.285 147.661 307.879 145.685C304.1 143.347 300.15 141.211 296.238 139.035C291.108 136.324 286.168 133.219 281.459 129.746C283.874 136.051 286.716 142.159 289.964 148.022C294.424 156.364 299.28 164.545 303.192 173.148C304.685 176.473 305.97 180.12 305.082 183.727C304.603 185.572 303.693 187.256 302.436 188.623C300.842 190.509 298.916 192.043 296.767 193.137C292.657 194.973 288.036 195.016 283.897 193.258C279.399 191.251 275.177 188.6 271.349 185.379C264.772 180.463 258.12 175.748 251.184 171.174C254.831 174.861 258.517 178.508 262.013 182.317C264.129 184.634 266.171 186.991 268.098 189.429C269.794 191.458 271.283 193.674 272.539 196.038C273.805 198.618 274.429 201.821 271.708 203.796C270.146 204.777 268.419 205.421 266.624 205.69C263.831 206.234 260.997 206.497 258.158 206.476C245.666 206.476 234.875 200.048 224.745 194.245C222.459 192.935 220.323 191.424 218.15 189.994C214.956 187.979 211.743 185.802 208.417 183.949C205.41 182.087 202.246 180.529 198.968 179.294H198.836C201.179 181.309 203.579 183.183 206.017 185.097C211.346 189.268 216.789 193.358 221.892 197.791C226.944 202.018 231.533 206.837 235.574 212.158C235.607 212.206 235.628 212.262 235.637 212.32C235.646 212.379 235.642 212.439 235.626 212.495C235.609 212.552 235.581 212.604 235.542 212.647C235.504 212.69 235.456 212.722 235.404 212.742C230.075 215.201 223.706 214.757 218.074 213.427C213.04 212.29 208.158 210.49 203.541 208.068C201.836 207.229 200.267 206.107 198.892 204.743C197.775 203.556 196.934 202.107 196.436 200.512C195.893 198.415 195.489 196.281 195.226 194.124C194.716 191.396 194.047 188.704 193.223 186.064C191.769 181.524 189.869 177.161 187.553 173.048C188.076 177.023 187.955 181.065 187.194 184.996C186.419 189.188 185.304 193.298 184.435 197.489C183.987 199.629 183.715 201.807 183.622 203.997C183.561 205.633 183.9 207.258 184.605 208.712C186.218 211.359 188.402 213.556 190.974 215.12C192.372 216.127 193.79 217.135 195.113 218.203L196.228 217.699H196.341C198.231 216.49 200.121 215.241 202.011 214.072C208.115 217.575 214.676 220.088 221.476 221.528C228.345 223.147 235.432 223.433 242.396 222.374C245.669 221.887 248.817 220.709 251.657 218.908C253.455 217.7 254.948 216.04 256.003 214.072C261.535 216.627 267.569 217.699 273.579 217.195C277.242 216.726 280.693 215.114 283.5 212.561C284.875 211.331 286 209.816 286.808 208.108C287.225 207.181 287.463 206.173 287.507 205.146C288.668 205.949 289.903 206.624 291.192 207.161C292.326 207.624 293.479 208.027 294.669 208.39H294.802C296.96 209.266 299.258 209.684 301.567 209.619C304.456 209.922 307.369 209.436 310.034 208.209C312.463 206.876 314.517 204.881 315.987 202.426V202.265C316.838 200.554 317.473 198.732 317.876 196.844C318.116 194.295 318.071 191.725 317.744 189.188C320.56 188.18 323.414 187.173 326.248 186.286C327.363 185.923 328.459 185.54 329.556 185.117C329.436 185.813 329.564 186.532 329.915 187.132C330.924 188.708 332.263 190.012 333.827 190.941C335.417 192.008 337.108 192.893 338.872 193.58C342.783 194.968 346.934 195.408 351.024 194.87C355.187 194.542 359.229 193.227 362.854 191.021L363.025 190.88C364.663 189.67 366.024 188.082 367.006 186.232C367.987 184.383 368.565 182.321 368.694 180.201C368.708 180.142 368.703 180.08 368.679 180.024C368.655 179.969 368.613 179.925 368.562 179.899C368.675 178.972 368.789 178.065 368.921 177.158C369.318 174.66 369.734 172.141 369.904 169.602C370.077 167.585 370.001 165.553 369.677 163.557C370.827 163.592 371.976 163.47 373.097 163.195C375.148 162.72 377.153 162.046 379.088 161.18C383.102 159.331 386.992 157.19 390.73 154.772C394.5 152.476 398.062 149.812 401.369 146.813C403.933 144.437 406.298 141.828 408.437 139.015C410.63 138.713 412.822 138.391 415.014 138.008C418.038 137.484 421.043 136.879 424.028 136.275C430.038 135.046 436.029 133.716 442.02 132.406C454.058 129.767 466.153 127.288 478.172 124.548C484.232 123.205 490.292 121.774 496.352 120.256L499.962 119.39C499.811 116.831 499.66 114.272 499.433 111.713C499.376 110.846 499.282 110.06 499.225 109.254Z" fill="#7D6A5E"/>
</g>
<g opacity="0.35" style="mix-blend-mode:multiply">
<path d="M142.178 150.621C138.852 151.669 136.358 154.651 134.166 156.928C132.276 158.943 129.687 161.844 126.417 161.179C124.782 160.784 123.345 159.749 122.392 158.278C121.279 156.501 120.449 154.54 119.935 152.475C119.292 150.319 118.782 148.143 118.045 145.987C117.771 145.057 117.423 144.154 117.006 143.287C116.42 142.162 115.73 141.102 114.946 140.123C113.274 137.925 111.372 135.937 109.276 134.199C109.781 134.835 110.242 135.508 110.656 136.214C114.436 142.259 114.946 149.372 116.004 156.061C117.142 164.846 119.565 173.386 123.186 181.369C124.275 181.121 125.343 180.778 126.379 180.342C127.247 174.815 128.898 169.462 131.274 164.464C133.751 158.939 137.503 154.176 142.178 150.621Z" fill="#7D6A5E"/>
</g>
</svg>
