<svg width="194" height="237" viewBox="0 0 194 237" fill="none" xmlns="http://www.w3.org/2000/svg">
<path d="M103.204 203.631L103.207 203.698L103.203 203.631C85.0008 205.275 69.476 197.434 58.5633 184.599C49.1493 173.526 43.1715 158.736 41.8804 143.122L41.8804 143.121C41.6606 140.96 40.7643 138.758 39.2107 136.93C37.8195 135.294 35.9002 133.958 33.4689 133.225L33.4662 133.225C20.2809 129.862 4.71705 127.118 -6.69936 120.254L-6.78605 120.268L-6.78974 120.355C-6.54411 120.664 -6.29447 120.969 -6.04044 121.267C1.59555 130.246 12.8749 134.428 21.6176 142.065C22.7703 143.071 23.8279 144.156 24.8043 145.305C29.2133 150.491 31.9662 156.976 34.3367 163.415C38.4797 174.668 43.6685 185.679 51.3969 194.77C53.4172 197.146 55.6109 199.391 58.0052 201.475C70.7222 212.543 87.9128 217.212 104.822 212.833C109.932 211.51 114.697 209.375 119.31 206.792C125.603 203.268 132.575 198.317 140.59 191.502C140.726 191.387 140.853 191.275 140.986 191.161L140.999 191.07L140.909 191.053C129.587 197.901 117.029 202.51 103.204 203.631Z" fill="#BB8D03"/>
<path d="M7.86282 90.8115L7.863 90.8113C8.46602 89.7155 9.17152 88.5822 9.96013 87.4246L9.96311 87.4201C10.7499 86.2656 11.6191 85.087 12.552 83.8972L12.5687 83.876C12.863 83.5009 13.1656 83.1244 13.4722 82.7472L13.4864 82.6901L13.451 82.6447C13.1598 82.505 12.8571 82.3506 12.5359 82.1711C11.3118 81.4871 9.88512 80.5261 8.40274 79.3955C5.63285 77.2831 2.66804 74.5778 0.45872 71.979C-0.0907917 71.3326 -0.593628 70.6929 -1.03487 70.0707C-1.59192 69.2855 -2.04359 68.5311 -2.37602 67.8238L-2.43222 67.7865L-2.49412 67.8181C-4.03168 70.1326 -5.44816 72.461 -6.71409 74.7846L-6.71679 74.8455C-5.20342 78.1395 -3.2762 81.2966 -0.970816 84.0083C1.51781 86.9355 4.44732 89.3442 7.77337 90.843L7.86282 90.8115Z" fill="#BB8D03"/>
<path d="M57.0975 46.7278C57.1794 46.6864 57.2615 46.6423 57.3409 46.6024C57.4748 46.5353 57.6082 46.4682 57.7407 46.403C58.2587 46.1479 58.7728 45.9011 59.2821 45.6693L59.3218 45.5908C57.6769 38.4714 54.6815 31.7578 50.1661 26.194L50.0939 26.1732C47.6197 26.9622 45.1146 27.9159 42.5953 29.0211L42.5533 29.0801L42.5865 29.1421C44.8639 30.4069 47.8969 33.251 50.6061 36.4384C52.3771 38.5214 54.0112 40.7516 55.2108 42.7838L55.2697 42.7481L55.2107 42.7838C55.923 43.9886 56.6026 45.2796 56.9851 46.6312L56.9856 46.6327L57.0031 46.6895L57.0407 46.7305L57.0975 46.7278Z" fill="#BB8D03"/>
<path d="M85.1633 52.468C84.1226 51.2447 82.7074 50.2461 81.0842 49.5175L81.001 49.5392L81.0021 49.6239L81.0105 49.6339C83.6971 52.7941 85.8193 56.8166 86.8083 61.0599C87.6783 64.7931 87.6716 68.6961 86.4054 72.3354C85.1205 76.0286 82.6191 79.2074 79.6023 81.7721C78.1568 83.001 76.5933 84.0888 74.9894 85.0243C72.8892 86.0664 70.8222 87.2107 68.7954 88.4581C68.1195 88.874 67.448 89.3015 66.7814 89.7404C64.1147 91.4959 61.524 93.4346 59.0264 95.5579C55.6215 98.4527 52.4612 101.635 49.598 105.06C47.0631 108.094 44.7291 111.301 41.7259 113.854C41.2258 114.279 40.7073 114.686 40.1661 115.071L40.1521 115.081C36.7474 117.501 32.1457 119.655 26.8663 119.212L26.7945 119.258L26.8211 119.337C30.0123 121.319 33.5131 122.486 37.4125 121.886C41.5048 121.257 44.6882 119.552 47.3914 117.254C53.7681 111.829 57.4899 103.113 64.2825 97.3406C65.0693 96.6717 65.8971 96.0423 66.7751 95.4617C73.236 91.4389 80.2795 89.8718 86.3257 86.2102C87.0943 85.7379 87.7948 85.2294 88.431 84.6885C93.1129 80.7085 94.299 74.988 93.4279 69.2333C92.5572 63.4768 89.6345 57.6762 86.0858 53.5015C85.7826 53.1448 85.4748 52.7999 85.1633 52.468Z" fill="#BB8D03"/>
<path d="M102.44 47.9595L102.367 47.9227L102.31 47.9847L102.31 47.9935C102.657 57.9298 103.91 67.7683 109.835 74.7387C111.76 77.0039 114.179 78.9648 117.219 80.5252C121.607 82.9946 126.897 83.6227 132.293 83.4217L132.359 83.3669L132.322 83.2923L132.258 83.2636C132.133 83.2082 132.008 83.1522 131.883 83.097C129.773 82.127 124.054 79.3001 118.6 74.8618C118.363 74.6689 118.127 74.4728 117.891 74.2738C116.712 73.2785 115.553 72.2078 114.455 71.064C114.235 70.8353 114.018 70.6036 113.803 70.3691C113.589 70.1345 113.377 69.897 113.168 69.6567C113.085 69.5609 113.003 69.4649 112.92 69.3683C112.796 69.2222 112.673 69.0753 112.552 68.9271C112.318 68.6432 112.091 68.346 111.868 68.0405L111.868 68.0403L111.797 67.9457C111.587 67.6541 111.381 67.3518 111.178 67.042C111.146 66.9924 111.113 66.9436 111.082 66.8944C110.885 66.5896 110.692 66.2763 110.502 65.9555C110.468 65.8979 110.434 65.8399 110.4 65.7818C110.212 65.4595 110.027 65.1305 109.845 64.7938C109.814 64.7368 109.783 64.6786 109.752 64.6204C109.568 64.2758 109.385 63.9255 109.206 63.5672C109.183 63.5215 109.16 63.4743 109.136 63.4274C108.96 63.0724 108.785 62.7117 108.612 62.3447L108.566 62.25L108.567 62.2503C108.392 61.8773 108.218 61.4964 108.045 61.1118C108.012 61.0381 107.979 60.9652 107.946 60.8916C107.785 60.5317 107.626 60.1664 107.467 59.7975C107.42 59.6904 107.374 59.5833 107.328 59.4757C107.18 59.1317 107.033 58.7842 106.886 58.4336C106.822 58.2806 106.757 58.1266 106.693 57.9725C106.577 57.6948 106.461 57.4153 106.345 57.134C105.328 54.6729 104.29 52.0846 103.129 49.4753L103.12 49.4562C102.899 48.9585 102.672 48.4601 102.441 47.9616L102.441 47.9621L102.44 47.9595Z" fill="#BB8D03"/>
<path d="M132.73 83.4741L132.729 83.4729L132.712 83.4655C132.561 83.3961 132.409 83.3301 132.258 83.2634L132.257 83.2636L132.206 83.2624L132.176 83.2897C126.835 83.477 121.614 82.8414 117.289 80.407L117.287 80.4058C114.261 78.8525 111.855 76.9024 109.94 74.6494C104.048 67.7211 102.792 57.9145 102.446 47.9845L102.44 47.959C100.45 43.6732 98.0741 39.3945 94.8591 35.6129C90.8996 30.9551 85.6651 27.0521 78.3159 24.8221C70.2108 22.3631 60.4233 22.8872 50.1061 26.177L50.094 26.1734C49.2866 26.431 48.4753 26.7122 47.6624 27.004L47.619 27.0908L47.7048 27.1312C47.7083 27.1299 47.7117 27.1288 47.7152 27.1276C48.5102 26.8428 49.3025 26.5754 50.092 26.3228C54.5742 31.8607 57.5521 38.5399 59.1892 45.6254L59.1956 45.6237L59.1898 45.639L59.2786 45.6712C63.3791 43.8055 67.0647 42.7925 69.7684 43.2046C74.6561 43.9475 78.3115 46.4627 81.0022 49.6238L81.0249 49.641C82.6343 50.3634 84.0347 51.3528 85.0605 52.5595L85.0626 52.5619C85.3725 52.8922 85.679 53.2354 85.9809 53.5906C89.5147 57.7468 92.4282 63.5311 93.2935 69.2574C94.1584 74.9854 92.9803 80.6453 88.3446 84.5868C87.7142 85.1228 87.0197 85.627 86.2574 86.0954C80.2393 89.7426 73.1925 91.3107 66.7046 95.3483L66.7029 95.3492C65.8196 95.9333 64.987 96.5664 64.1961 97.2388C57.3727 103.043 53.6488 111.762 47.3048 117.152C44.6167 119.437 41.4612 121.127 37.3959 121.752C33.5372 122.346 30.0715 121.193 26.8956 119.221L26.8872 119.234L26.8684 119.212C26.4341 119.175 25.9971 119.127 25.5549 119.054C22.2733 118.516 14.8951 115.599 10.0809 109.934C7.39014 106.769 5.49684 102.749 5.55034 97.8006C5.57142 95.8052 6.43076 93.4129 7.86291 90.8113L7.86328 90.8107L7.83622 90.7202L7.83175 90.7216L7.83263 90.7198C4.52864 89.2307 1.61305 86.8352 -0.86595 83.9193C-3.16233 81.2182 -5.08394 78.0709 -6.5929 74.7862L-6.6522 74.7484L-6.71447 74.7853C-12.2596 84.9646 -15.0705 95.0332 -13.9681 103.279C-13.0208 110.362 -10.3479 115.87 -6.7905 120.355L-6.77306 120.37C4.67505 127.252 20.2483 129.994 33.4264 133.355C35.833 134.081 37.7297 135.402 39.1056 137.02C40.6419 138.827 41.5278 141.005 41.7449 143.139C43.0387 158.779 49.0252 173.593 58.4581 184.689C69.3915 197.55 84.9606 205.415 103.211 203.766C116.86 202.66 129.273 198.154 140.483 191.459L140.494 191.496L140.54 191.519L140.59 191.503C165.072 170.691 171.396 158.008 172.826 143.331C174.3 128.226 167.998 115.51 158.706 104.581C152.276 97.0178 141.258 87.3907 132.73 83.4741Z" fill="#D5A310"/>
<path d="M141.727 154.216C139.054 158.292 135.73 162.098 131.772 165.463C121.803 173.939 109.721 178.014 98.2464 177.754C86.7719 177.493 75.9066 172.897 68.3662 164.028C62.3179 156.914 59.3305 148.131 59.2039 139.067L59.1437 139.003L59.0699 139.056C59.0507 139.134 59.0345 139.21 59.0164 139.285C58.8844 139.829 58.7642 140.374 58.6533 140.919C58.6303 141.032 58.605 141.146 58.5825 141.262C56.3123 152.891 59.3803 165.146 66.7996 173.873C69.4398 176.979 72.631 179.638 76.3291 181.662C89.9102 189.096 107.121 187.317 120.522 179.279C122.932 177.833 125.226 176.182 127.374 174.356C128.498 173.401 129.582 172.397 130.622 171.35C135.031 166.908 138.643 161.68 141.131 155.99C141.26 155.696 141.384 155.401 141.506 155.105C141.62 154.829 141.737 154.553 141.847 154.274L141.815 154.19L141.727 154.216Z" fill="#545454"/>
<path d="M42.6557 29.0236L42.6553 29.0233L42.6545 29.0229L42.6549 29.0231C42.072 28.6994 41.5336 28.4712 41.0571 28.3687C40.4054 28.2346 39.2211 28.6879 37.6057 29.5686C32.7703 32.2158 24.1627 38.7955 16.1002 45.6493C9.78679 51.0169 3.81066 56.5509 0.249381 60.4951L0.232812 60.5557C0.7146 62.7567 1.86518 64.7706 3.37833 66.5504C4.37818 67.7265 5.53635 68.8007 6.76605 69.7596L6.76857 69.7614C10.5846 72.4476 15.0796 72.3282 19.6349 71.4069L19.6426 71.405C23.7468 70.0836 27.1221 67.8111 30.2149 65.1817C34.0189 61.9475 37.3977 58.1731 41.1845 54.9539C43.7662 52.759 46.5368 50.8222 49.7606 49.4873L49.7605 49.4872C50.7935 49.1118 51.6445 48.6185 52.3349 48.0316C54.1524 46.4866 54.8491 44.3003 54.8521 41.9482L54.842 41.9131C53.7002 40.0968 52.2588 38.1672 50.7133 36.3493C47.9964 33.1542 44.9609 30.3053 42.6557 29.0236Z" fill="#42340B"/>
<path d="M54.7656 41.8859L54.716 41.9525C54.7133 44.2815 54.0291 46.4171 52.2517 47.9285C51.5742 48.5044 50.7367 48.9906 49.7146 49.3617L49.7117 49.3627C46.4698 50.7051 43.6866 52.6516 41.0981 54.8523C37.3016 58.0802 33.9226 61.8547 30.1284 65.0802C27.0443 67.7021 23.6867 69.9615 19.6076 71.2753C15.0661 72.1925 10.6211 72.3044 6.85089 69.651C5.62774 68.6969 4.47608 67.6288 3.48329 66.461C1.98011 64.6929 0.841363 62.6971 0.365768 60.5229L0.317246 60.4735L0.249373 60.495C0.146382 60.609 0.0468667 60.7207 -0.0519065 60.8319C-0.099874 60.886 -0.147253 60.9396 -0.194379 60.993C-0.289181 61.1007 -0.383578 61.2082 -0.474498 61.3133L-0.474681 61.3136L-0.540288 61.3903C-0.711284 61.589 -0.874193 61.7823 -1.03015 61.9709C-1.08118 62.0327 -1.13205 62.0943 -1.18151 62.155C-1.25088 62.2402 -1.31911 62.3248 -1.38526 62.4078C-1.44473 62.4825 -1.50098 62.555 -1.55745 62.6275C-1.64271 62.737 -1.72473 62.8443 -1.80361 62.9494C-1.86459 63.0309 -1.92498 63.1118 -1.98226 63.191C-2.02694 63.2525 -2.06955 63.3126 -2.11148 63.3721C-2.16937 63.4543 -2.22442 63.5344 -2.27743 63.6133C-2.30766 63.658 -2.34017 63.7049 -2.36983 63.7502C-2.4453 63.8654 -2.51431 63.9762 -2.57868 64.0837L-2.57914 64.0845L-2.64553 64.1992C-2.69217 64.2801 -2.73532 64.3584 -2.77509 64.4345L-2.82573 64.5318L-2.82629 64.5329C-2.8767 64.6341 -2.92156 64.7316 -2.95925 64.8244L-2.95999 64.8265L-2.98089 64.8832C-3.01008 64.9593 -3.03423 65.032 -3.05386 65.1019L-3.05411 65.1028L-3.0725 65.1719L-3.07297 65.1736C-3.09275 65.2561 -3.1084 65.3366 -3.11335 65.4126C-3.12379 65.5735 -3.1206 65.7402 -3.10478 65.9119C-3.07293 66.2558 -2.9901 66.6207 -2.86238 67.0034C-2.5429 67.9598 -1.94275 69.028 -1.14669 70.1503C-0.702793 70.7762 -0.197757 71.4187 0.353763 72.0674C2.57134 74.6758 5.54107 77.3853 8.318 79.5031C9.80404 80.6365 11.2347 81.6005 12.4664 82.2888C12.7904 82.4699 13.0955 82.6255 13.3888 82.7662C13.8402 82.9827 14.2578 83.1561 14.6247 83.2669C15.0388 83.3897 15.5724 83.2298 16.2244 82.8626C16.8767 82.4938 17.6501 81.9103 18.5353 81.1578C19.2297 80.5674 19.9926 79.873 20.818 79.0969C21.6548 78.3099 22.5558 77.4391 23.5142 76.5078C23.7538 76.275 23.997 76.0384 24.2437 75.7984C27.2038 72.9182 30.6662 69.5467 34.4483 66.3197C34.5006 66.2751 34.5529 66.2305 34.6052 66.186C34.8687 65.962 35.1337 65.7388 35.4004 65.5163C37.8833 63.4448 40.5057 61.4627 43.0397 59.6148C43.99 58.9218 44.9277 58.2476 45.8411 57.5947C46.4501 57.1594 47.0482 56.7336 47.6318 56.3178C50.5502 54.2389 53.1081 52.4134 54.8637 50.9251L54.895 50.8985C55.4084 50.462 55.8522 50.0546 56.2159 49.6779C56.4631 49.4217 56.6731 49.1796 56.8426 48.9519C57.0965 48.61 57.26 48.3005 57.317 48.0192C57.336 47.9255 57.3428 47.8348 57.3365 47.7478C57.3236 47.5709 57.2968 47.3848 57.2606 47.1925C57.2482 47.1271 57.2298 47.0605 57.2164 46.9992C57.1869 46.8664 57.1562 46.7317 57.1163 46.5902C56.7463 45.2835 56.1223 44.0855 55.4519 42.9261C55.4109 42.8552 55.3719 42.7849 55.3289 42.712C55.1733 42.4485 55.0116 42.1822 54.8422 41.9127L54.7656 41.8859Z" fill="#694E00"/>
<path d="M41.0227 30.6581C38.1184 30.3812 35.4601 32.2818 33.1338 34.0661C27.2904 38.5521 21.4382 43.0451 15.8259 47.8165C13.738 49.5915 11.6833 51.405 9.67495 53.2709C9.0285 53.8717 8.01356 54.6991 7.17814 55.6322C6.34394 56.5655 5.68051 57.6078 5.75925 58.6541C5.79619 59.1357 5.98315 59.5435 6.26871 59.8788C7.29304 61.0755 9.54136 61.3854 10.8955 61.1873C13.0475 60.8672 14.9526 59.6025 16.6507 58.2373C16.9598 57.9887 17.2657 57.7351 17.5688 57.4774C20.3958 55.0737 22.9878 52.3129 25.7924 49.9287C27.9843 48.0652 30.3052 46.4321 32.9687 45.3759C35.3398 44.4351 37.8885 44.0036 40.2687 43.0295C41.4183 42.5586 42.5521 41.9195 43.5065 41.1081C44.5292 40.2386 45.3467 39.1702 45.7514 37.8999C46.2621 36.2961 46.028 34.4993 45.1289 33.1217C45.0082 32.9369 44.8758 32.7602 44.7331 32.5924C43.8125 31.51 42.462 30.7968 41.0227 30.6581Z" fill="#816102"/>
<path d="M65.9668 25.6154C63.2006 25.5849 60.4069 25.8634 57.6953 26.5138C56.2306 26.8651 55.003 28.3099 55.3234 29.8524C55.6232 31.2957 57.0395 32.4802 58.6045 32.1047C62.2005 31.2423 65.9213 31.1182 69.5237 31.6586C76.2807 32.6721 82.6213 36.0236 86.9417 41.226C87.8803 42.3562 89.8298 42.5441 90.9707 41.4858C92.1348 40.4058 92.3684 38.6787 91.3626 37.4675C85.2515 30.1088 75.6954 25.723 65.9668 25.6154ZM63.3771 31.3456L63.4162 31.3415C63.8294 31.3051 63.5418 31.3372 63.3771 31.3456Z" fill="#99750C"/>
<path d="M112.534 90.4287C107.226 89.6234 101.76 89.6632 96.4028 90.4672C95.9003 90.5426 95.4336 90.7764 95.0441 91.1075C94.2447 91.7879 93.764 92.8808 93.9722 93.8883C94.0807 94.4112 94.3058 94.8671 94.6178 95.2338C95.2506 95.9787 96.2409 96.3554 97.3279 96.1918C108.88 94.4576 120.874 97.0536 130.443 103.318C134.119 105.725 137.452 108.683 140.313 112.049C144.546 117.028 147.748 122.898 149.505 129.192C149.61 129.567 149.709 129.944 149.806 130.322C149.935 130.827 150.179 131.304 150.513 131.696C151.14 132.436 152.09 132.877 153.166 132.622C153.666 132.504 154.156 132.247 154.568 131.896C155.347 131.235 155.854 130.231 155.591 129.199C153.582 121.338 149.834 114.156 144.667 108.079C142.896 105.995 140.958 104.042 138.866 102.235C131.501 95.8732 122.25 91.9031 112.534 90.4287Z" fill="#99750C"/>
<path d="M136.389 114.014C129.21 105.569 118.79 101.257 107.751 101.111C96.7123 100.965 85.0524 104.984 75.3867 113.201C66.9459 120.377 61.4217 129.57 59.0699 139.056L59.0679 139.073C59.1947 148.165 62.1924 156.979 68.2612 164.117C75.8273 173.017 86.7304 177.628 98.2389 177.889C109.747 178.15 121.863 174.062 131.858 165.565C135.65 162.341 138.855 158.711 141.471 154.828C141.44 154.904 141.412 154.981 141.381 155.057L141.417 155.144L141.506 155.105C141.62 154.829 141.737 154.553 141.847 154.274L141.841 154.259C147.279 140.369 145.76 125.037 136.389 114.014Z" fill="#060415"/>
</svg>
