<svg width="219" height="214" viewBox="0 0 219 214" fill="none" xmlns="http://www.w3.org/2000/svg">
<path d="M68.8084 30.162L68.7906 30.1011L68.8089 30.1619C84.7579 28.5608 100.375 35.5501 112.948 47.0826C123.794 57.0318 132.372 70.3624 136.931 84.4674L136.931 84.4685C137.599 86.42 138.881 88.405 140.671 90.047C142.274 91.5176 144.285 92.7126 146.623 93.3596L146.625 93.3603C159.17 96.3162 173.712 98.6986 185.435 104.831L185.51 104.818L185.494 104.739C185.207 104.461 184.917 104.187 184.624 103.919C175.827 95.8514 164.811 92.1425 155.314 85.2951C154.062 84.3926 152.878 83.4186 151.753 82.3866C146.674 77.7273 142.794 71.8823 139.268 66.0777C133.104 55.9327 126.057 46.0126 117.152 37.8446C114.825 35.7094 112.37 33.6939 109.771 31.8257C95.9666 21.9015 79.5484 17.7902 65.3537 21.8544C61.064 23.0827 57.2598 25.0421 53.6896 27.406C48.8196 30.6307 43.653 35.1506 37.9569 41.3604C37.8603 41.4656 37.7707 41.567 37.6759 41.671L37.6844 41.7533L37.7686 41.7683C46.42 35.5074 56.6662 31.2619 68.8084 30.162Z" fill="#BB8D03"/>
<path d="M178.804 131.535L178.804 131.535C178.502 132.529 178.117 133.558 177.663 134.609L177.661 134.613C177.208 135.662 176.686 136.733 176.109 137.814L176.099 137.833C175.917 138.174 175.728 138.516 175.535 138.859L175.535 138.911L175.577 138.952C175.868 139.076 176.173 139.214 176.5 139.374C177.745 139.984 179.233 140.844 180.807 141.857C183.749 143.749 186.995 146.175 189.54 148.51C190.173 149.091 190.763 149.666 191.294 150.226C191.964 150.932 192.533 151.611 192.985 152.248L193.044 152.281L193.092 152.252C193.965 150.151 194.727 148.037 195.355 145.929L195.344 145.874C193.271 142.906 190.856 140.065 188.2 137.628C185.333 134.998 182.183 132.839 178.877 131.506L178.804 131.535Z" fill="#BB8D03"/>
<path d="M144.299 171.691C144.235 171.729 144.171 171.769 144.109 171.806C144.003 171.867 143.898 171.929 143.794 171.989C143.385 172.222 142.979 172.449 142.573 172.662L142.554 172.733C145.579 179.157 149.726 185.207 154.983 190.207L155.052 190.226C157.097 189.497 159.133 188.619 161.15 187.604L161.174 187.551L161.131 187.495C158.815 186.366 155.478 183.814 152.357 180.95C150.316 179.079 148.366 177.073 146.849 175.244L146.804 175.277L146.849 175.244C145.948 174.16 145.058 172.997 144.421 171.778L144.42 171.776L144.392 171.725L144.35 171.688L144.299 171.691Z" fill="#BB8D03"/>
<path d="M117.905 166.68C119.104 167.779 120.589 168.673 122.202 169.321L122.272 169.301L122.252 169.224L122.243 169.215C119.147 166.376 116.37 162.753 114.559 158.924C112.966 155.555 112.122 152.027 112.463 148.73C112.81 145.384 114.358 142.495 116.502 140.157C117.53 139.038 118.693 138.045 119.926 137.189C121.581 136.234 123.183 135.186 124.727 134.046C125.242 133.666 125.751 133.275 126.252 132.874C128.259 131.271 130.158 129.502 131.933 127.567C134.352 124.929 136.49 122.033 138.309 118.919C139.919 116.161 141.311 113.248 143.446 110.921C143.801 110.534 144.177 110.163 144.578 109.811L144.588 109.802C147.111 107.593 150.765 105.617 155.591 105.984L155.645 105.942L155.604 105.871C152.314 104.1 148.923 103.067 145.56 103.634C142.031 104.228 139.55 105.789 137.629 107.884C133.098 112.827 131.663 120.729 126.835 125.989C126.276 126.599 125.672 127.173 125.012 127.703C120.1 131.38 114.131 132.841 109.512 136.188C108.926 136.62 108.409 137.084 107.957 137.577C104.63 141.204 104.814 146.382 106.848 151.578C108.882 156.776 112.764 162 116.853 165.751C117.203 166.072 117.553 166.382 117.905 166.68Z" fill="#BB8D03"/>
<path d="M103.409 170.864L103.483 170.897L103.52 170.84L103.518 170.832C101.042 161.854 97.7766 152.969 90.9499 146.706C88.7312 144.67 86.1366 142.913 83.0733 141.522C78.6042 139.318 73.728 138.783 68.938 138.999L68.8909 139.049L68.9401 139.116L69.0038 139.142C69.1277 139.191 69.2516 139.241 69.3759 139.29C71.4773 140.153 77.2166 142.673 83.0698 146.65C83.3243 146.823 83.5791 146.998 83.8337 147.177C85.1068 148.069 86.3781 149.029 87.6112 150.056C87.8579 150.262 88.103 150.47 88.3462 150.68C88.5895 150.891 88.8311 151.104 89.0704 151.32C89.1658 151.406 89.2607 151.493 89.3554 151.579C89.4985 151.711 89.6407 151.843 89.782 151.976C90.0529 152.231 90.321 152.498 90.5877 152.773L90.588 152.773L90.6714 152.858C90.9238 153.12 91.1741 153.392 91.4231 153.671C91.4629 153.716 91.5027 153.76 91.5418 153.804C91.7843 154.078 92.0252 154.36 92.2652 154.649C92.3083 154.701 92.3513 154.753 92.3944 154.805C92.633 155.095 92.8707 155.391 93.1074 155.695C93.1474 155.746 93.1876 155.798 93.2282 155.851C93.4686 156.161 93.7083 156.477 93.9474 156.799C93.9779 156.84 94.0086 156.883 94.0398 156.925C94.2754 157.245 94.5106 157.57 94.7458 157.901L94.8069 157.986L94.8066 157.986C95.0449 158.322 95.2833 158.665 95.522 159.011C95.5677 159.078 95.6134 159.144 95.6588 159.21C95.881 159.534 96.1036 159.863 96.3267 160.196C96.3914 160.292 96.4564 160.389 96.5211 160.486C96.7281 160.796 96.9358 161.109 97.144 161.425C97.2349 161.563 97.3262 161.701 97.4174 161.84C97.5818 162.091 97.7465 162.343 97.9119 162.596C99.3593 164.814 100.853 167.147 102.462 169.498L102.474 169.516C102.781 169.964 103.092 170.413 103.408 170.862L103.407 170.862L103.409 170.864Z" fill="#BB8D03"/>
<path d="M68.5349 138.954L68.5358 138.955L68.5531 138.962C68.7036 139.024 68.8541 139.082 69.0039 139.142L69.004 139.142L69.0505 139.142L69.071 139.117C73.8159 138.914 78.6316 139.456 83.0365 141.629L83.0388 141.63C86.0883 143.015 88.6683 144.763 90.8753 146.787C97.6629 153.012 100.925 161.868 103.398 170.841L103.409 170.864C106.126 174.725 109.187 178.578 112.891 181.976C117.453 186.161 122.993 189.656 130.063 191.625C137.86 193.796 146.514 193.261 155.04 190.222L155.052 190.225C155.719 189.988 156.385 189.728 157.05 189.459L157.07 189.381L156.984 189.345C156.981 189.346 156.978 189.347 156.975 189.348C156.325 189.61 155.674 189.857 155.021 190.09C149.799 185.113 145.676 179.095 142.666 172.701L142.66 172.702L142.662 172.688L142.576 172.66C139.308 174.372 136.227 175.311 133.715 174.956C129.175 174.315 125.352 172.065 122.252 169.224L122.228 169.209C120.629 168.566 119.159 167.681 117.977 166.596L117.975 166.594C117.625 166.298 117.276 165.989 116.928 165.67C112.856 161.936 108.986 156.726 106.963 151.556C104.94 146.384 104.763 141.26 108.057 137.668C108.505 137.18 109.017 136.72 109.598 136.292C114.195 132.957 120.167 131.495 125.099 127.805L125.101 127.804C125.765 127.271 126.373 126.693 126.935 126.08C131.783 120.791 133.22 112.887 137.729 107.975C139.64 105.893 142.098 104.346 145.604 103.755C148.932 103.194 152.288 104.213 155.563 105.976L155.567 105.964L155.589 105.984C155.986 106.015 156.388 106.055 156.8 106.118C159.857 106.584 167.103 109.174 172.65 114.264C175.751 117.108 178.323 120.73 179.353 125.203C179.769 127.006 179.52 129.174 178.804 131.535L178.804 131.535L178.848 131.617L178.851 131.616L178.851 131.617C182.135 132.942 185.269 135.089 188.125 137.709C190.771 140.136 193.179 142.969 195.246 145.928L195.307 145.962L195.355 145.928C198.105 136.693 198.43 127.574 195.646 120.128C193.254 113.732 189.659 108.77 185.495 104.739L185.476 104.725C173.72 98.5773 159.171 96.1968 146.632 93.2416C144.318 92.601 142.331 91.4192 140.746 89.9652C138.976 88.3417 137.708 86.3781 137.048 84.451C132.482 70.3224 123.891 56.9703 113.023 47.0008C100.425 35.4448 84.7635 28.4338 68.7726 30.0398C56.7856 31.1255 46.6462 35.2768 38.0624 41.3984L38.0439 41.3649L37.9979 41.3445L37.9569 41.3599C20.5576 60.3252 17.6549 71.8289 19.5716 85.1037C21.5426 98.7666 29.9589 110.221 40.6643 120.04C48.0731 126.836 60.0414 135.468 68.5349 138.954Z" fill="#D5A310"/>
<path d="M45.0622 75.0696C46.5683 71.368 48.7175 67.9068 51.5302 64.8405C58.6149 57.117 68.5509 53.3568 78.8875 53.5198C89.2242 53.6831 99.9597 57.7687 108.647 65.7378C115.616 72.1301 120.206 80.0501 122.294 88.2416L122.362 88.2994L122.417 88.2507C122.417 88.1804 122.415 88.1113 122.415 88.0435C122.414 87.5508 122.403 87.0575 122.384 86.5639C122.38 86.4614 122.378 86.3583 122.373 86.254C121.873 75.7278 116.454 64.6706 107.906 56.829C104.864 54.0386 101.426 51.6556 97.6717 49.8493C83.8848 43.2158 68.8528 44.9316 58.599 52.2816C56.7544 53.6037 55.0587 55.1104 53.5322 56.7747C52.7334 57.6455 51.981 58.5594 51.2776 59.5127C48.2953 63.555 46.1983 68.3032 45.2094 73.4618C45.1582 73.7288 45.1112 73.9965 45.0661 74.2644C45.024 74.5147 44.9792 74.765 44.9421 75.0177L44.9888 75.0931L45.0622 75.0696Z" fill="#545454"/>
<path d="M161.095 187.602L161.095 187.603L161.096 187.603L161.096 187.603C161.689 187.892 162.221 188.095 162.67 188.184C163.283 188.301 164.245 187.884 165.501 187.078C169.256 184.655 175.534 178.653 181.264 172.407C185.75 167.516 189.899 162.476 192.23 158.889L192.231 158.834C191.32 156.847 189.851 155.034 188.107 153.435C186.955 152.379 185.684 151.415 184.373 150.556L184.37 150.554C180.366 148.15 176.365 148.287 172.485 149.148L172.479 149.15C169.089 150.37 166.561 152.446 164.363 154.842C161.659 157.789 159.455 161.222 156.764 164.155C154.929 166.156 152.869 167.924 150.271 169.151L150.271 169.151C149.428 169.497 148.773 169.948 148.282 170.483C146.991 171.891 146.843 173.871 147.352 175.997L147.369 176.029C148.788 177.663 150.5 179.398 152.28 181.032C155.41 183.903 158.751 186.458 161.095 187.602Z" fill="#42340B"/>
<path d="M147.444 176.053L147.474 175.992C146.968 173.887 147.116 171.953 148.379 170.575C148.861 170.051 149.505 169.606 150.34 169.264L150.342 169.263C152.954 168.029 155.024 166.252 156.863 164.247C159.561 161.305 161.766 157.872 164.462 154.933C166.654 152.544 169.17 150.48 172.538 149.267C176.407 148.409 180.365 148.28 184.321 150.655C185.624 151.509 186.889 152.467 188.033 153.517C189.765 155.105 191.22 156.902 192.119 158.864L192.174 158.909L192.23 158.889C192.297 158.785 192.362 158.684 192.426 158.582C192.458 158.533 192.488 158.484 192.519 158.436C192.58 158.338 192.641 158.24 192.7 158.145L192.7 158.144L192.742 158.075C192.852 157.894 192.956 157.718 193.055 157.547C193.087 157.491 193.119 157.435 193.15 157.379C193.194 157.302 193.236 157.225 193.278 157.15C193.315 157.082 193.349 157.016 193.384 156.95C193.436 156.85 193.487 156.753 193.534 156.657C193.571 156.583 193.608 156.51 193.642 156.438C193.668 156.382 193.693 156.327 193.718 156.273C193.752 156.199 193.784 156.126 193.814 156.054C193.832 156.014 193.85 155.971 193.867 155.93C193.91 155.825 193.947 155.725 193.982 155.627L193.982 155.627L194.016 155.523C194.04 155.449 194.062 155.378 194.081 155.309L194.105 155.221L194.106 155.22C194.129 155.128 194.148 155.04 194.161 154.955L194.161 154.954L194.168 154.902C194.177 154.833 194.183 154.767 194.185 154.704L194.185 154.703L194.187 154.641L194.187 154.639C194.187 154.564 194.183 154.492 194.171 154.423C194.145 154.277 194.106 154.127 194.055 153.972C193.951 153.661 193.797 153.332 193.6 152.987C193.105 152.124 192.335 151.162 191.377 150.153C190.843 149.59 190.25 149.012 189.615 148.43C187.06 146.086 183.809 143.656 180.86 141.759C179.282 140.744 177.79 139.882 176.536 139.267C176.207 139.106 175.899 138.967 175.606 138.841C175.154 138.649 174.743 138.494 174.39 138.397C173.992 138.288 173.549 138.436 173.045 138.772C172.541 139.11 171.975 139.642 171.346 140.328C170.852 140.866 170.32 141.498 169.75 142.205C169.171 142.921 168.554 143.714 167.898 144.562C167.734 144.774 167.568 144.989 167.399 145.208C165.375 147.83 163.007 150.899 160.322 153.84C160.285 153.88 160.248 153.921 160.211 153.962C160.024 154.166 159.835 154.369 159.644 154.572C157.871 156.46 155.954 158.268 154.086 159.954C153.386 160.587 152.692 161.202 152.016 161.798C151.566 162.195 151.123 162.584 150.69 162.963C148.529 164.861 146.635 166.527 145.386 167.883L145.364 167.908C144.999 168.305 144.69 168.676 144.447 169.019C144.281 169.252 144.146 169.472 144.043 169.679C143.89 169.99 143.811 170.271 143.821 170.525C143.825 170.61 143.839 170.692 143.863 170.771C143.913 170.931 143.978 171.099 144.052 171.272C144.078 171.331 144.108 171.391 144.134 171.447C144.189 171.566 144.246 171.688 144.313 171.816C144.929 172.994 145.749 174.073 146.602 175.117C146.654 175.181 146.704 175.244 146.759 175.31C146.956 175.547 147.159 175.787 147.369 176.029L147.444 176.053Z" fill="#694E00"/>
<path d="M162.202 186.114C164.864 186.346 166.832 184.612 168.527 182.984C172.785 178.893 177.049 174.795 181.037 170.446C182.521 168.829 183.967 167.177 185.359 165.478C185.808 164.93 186.537 164.176 187.082 163.328C187.626 162.479 187.993 161.532 187.695 160.587C187.557 160.152 187.3 159.785 186.971 159.483C185.793 158.408 183.711 158.142 182.541 158.33C180.683 158.633 179.252 159.788 178.028 161.033C177.805 161.259 177.586 161.49 177.371 161.725C175.362 163.916 173.641 166.427 171.648 168.6C170.09 170.298 168.367 171.789 166.211 172.761C164.291 173.626 162.102 174.032 160.182 174.928C159.255 175.36 158.378 175.945 157.7 176.685C156.973 177.477 156.473 178.448 156.388 179.599C156.28 181.051 156.881 182.674 157.986 183.913C158.135 184.08 158.292 184.239 158.456 184.389C159.517 185.362 160.882 185.998 162.202 186.114Z" fill="#816102"/>
<path d="M140.953 190.83C143.438 190.84 145.88 190.571 148.168 189.966C149.404 189.639 150.189 188.325 149.565 186.933C148.982 185.631 147.456 184.569 146.135 184.918C143.101 185.72 139.795 185.856 136.45 185.39C130.176 184.517 123.765 181.527 118.761 176.852C117.674 175.837 115.886 175.679 115.095 176.643C114.287 177.626 114.454 179.189 115.619 180.277C122.697 186.89 132.214 190.794 140.953 190.83ZM142.025 185.634L141.991 185.638C141.629 185.674 141.879 185.643 142.025 185.634Z" fill="#99750C"/>
<path d="M85.1135 132.541C90.0441 133.235 94.9318 133.165 99.5565 132.404C99.9902 132.333 100.357 132.119 100.634 131.817C101.202 131.197 101.395 130.206 100.989 129.297C100.778 128.825 100.477 128.414 100.117 128.085C99.3879 127.416 98.4187 127.081 97.4805 127.236C87.5086 128.876 76.1977 126.606 66.2601 121.004C62.4427 118.852 58.8125 116.199 55.5157 113.175C50.6387 108.701 46.4913 103.415 43.5456 97.7372C43.37 97.3986 43.1988 97.0585 43.0298 96.7173C42.8041 96.2616 42.4812 95.8323 42.0969 95.4798C41.3741 94.8157 40.4267 94.423 39.518 94.66C39.0962 94.7699 38.7134 95.0054 38.4204 95.3247C37.8666 95.9276 37.6315 96.8381 38.092 97.7692C41.6043 104.862 46.5269 111.33 52.48 116.79C54.5208 118.662 56.6826 120.416 58.9502 122.036C66.9347 127.739 76.0873 131.27 85.1135 132.541Z" fill="#99750C"/>
<path d="M58.6026 111.373C66.8744 118.961 77.1488 122.793 87.0703 122.855C96.992 122.917 106.562 119.211 113.432 111.723C119.43 105.183 122.376 96.8397 122.417 88.2507L122.415 88.2351C120.32 80.0181 115.714 72.0704 108.722 65.6564C100.005 57.6599 89.232 53.5609 78.8647 53.3974C68.4973 53.2339 58.534 57.0053 51.4305 64.7491C48.736 67.6866 46.6555 70.9886 45.1576 74.5144C45.1687 74.4454 45.1773 74.3758 45.1889 74.3068L45.1371 74.2282L45.066 74.2642C45.0239 74.5145 44.9791 74.7648 44.942 75.0175L44.9501 75.0306C43.1045 87.62 47.8059 101.469 58.6026 111.373Z" fill="#060415"/>
</svg>
